<svg xmlns="http://www.w3.org/2000/svg" xmlns:xlink="http://www.w3.org/1999/xlink" xmlns:lucid="lucid" width="1662" height="1198"><g transform="translate(-39 -59)" lucid:page-tab-id="YTWknOTPC1vq"><path d="M200 80h1400v120H200z" stroke="#0693e3" stroke-width="2" fill="#fff"/><use xlink:href="#a" transform="matrix(1,0,0,1,212,92) translate(453.1764705882353 55.63398692810458)"/><use xlink:href="#b" transform="matrix(1,0,0,1,212,92) translate(588.9150326797386 55.63398692810458)"/><use xlink:href="#c" transform="matrix(1,0,0,1,212,92) translate(743.4771241830066 55.63398692810458)"/><path d="M60 400h380v180H60z" stroke="#0693e3" stroke-width="2" fill="#fff"/><use xlink:href="#d" transform="matrix(1,0,0,1,72,412) translate(6.535947712418301 85.9607843137255)"/><use xlink:href="#e" transform="matrix(1,0,0,1,72,412) translate(200.73202614379088 85.9607843137255)"/><path d="M495 400h380v180H495z" stroke="#0693e3" stroke-width="2" fill="#fff"/><use xlink:href="#f" transform="matrix(1,0,0,1,507,412) translate(116.18300653594771 85.9607843137255)"/><path d="M930 400h380v180H930z" stroke="#0693e3" stroke-width="2" fill="#fff"/><use xlink:href="#a" transform="matrix(1,0,0,1,942,412) translate(78.5359477124183 85.9607843137255)"/><use xlink:href="#g" transform="matrix(1,0,0,1,942,412) translate(214.27450980392157 85.9607843137255)"/><path d="M1680 596c0 13.25-67.16 24-150 24s-150-10.75-150-24V404c0-13.25 67.16-24 150-24s150 10.75 150 24z" stroke="#0693e3" stroke-width="2" fill="#fff"/><path d="M1680 404c0 13.25-67.16 24-150 24s-150-10.75-150-24" stroke="#0693e3" stroke-width="2" fill="none"/><use xlink:href="#h" transform="matrix(1,0,0,1,1385,433) translate(83.76470588235294 76.9673202614379)"/><use xlink:href="#i" transform="matrix(1,0,0,1,1385,433) translate(56.627450980392155 122.14379084967321)"/><path d="M310 780c27.6 0 50 22.4 50 50s-22.4 50-50 50H110c-27.6 0-50-22.4-50-50s22.4-50 50-50z" stroke="#0693e3" stroke-width="2" fill="#fff"/><use xlink:href="#j" transform="matrix(1,0,0,1,65,785) translate(74.35294117647058 53.54248366013072)"/><path d="M196 281h1393v2H196z" stroke="#0693e3" stroke-width="2" fill="none"/><path d="M900 203v54.26" stroke="#0693e3" stroke-width="4" fill="none"/><path d="M902 203.05h-4V201h4z" stroke="#0693e3" stroke-width=".05" fill="#0693e3"/><path d="M900 273.53l-4.63-14.27h9.26z" stroke="#0693e3" stroke-width="4" fill="#0693e3"/><path d="M260 286v90.26" stroke="#0693e3" stroke-width="4" fill="none"/><path d="M262 286.05h-4V284h4z" stroke="#0693e3" stroke-width=".05" fill="#0693e3"/><path d="M260 392.53l-4.63-14.27h9.26z" stroke="#0693e3" stroke-width="4" fill="#0693e3"/><path d="M683.5 282v90.26M683.5 282.05V280" stroke="#0693e3" stroke-width="4" fill="none"/><path d="M683.5 388.53l-4.62-14.27h9.27z" stroke="#0693e3" stroke-width="4" fill="#0693e3"/><path d="M1120 282v90.26M1120 282.05V280" stroke="#0693e3" stroke-width="4" fill="none"/><path d="M1120 388.53l-4.63-14.27h9.27z" stroke="#0693e3" stroke-width="4" fill="#0693e3"/><path d="M1540 282v74.47M1540 282.05V280" stroke="#0693e3" stroke-width="4" fill="none"/><path d="M1540 372.73l-4.63-14.26h9.27z" stroke="#0693e3" stroke-width="4" fill="#0693e3"/><path d="M141 661h1393v2H141z" stroke="#0693e3" stroke-width="2" fill="none"/><path d="M205 666V756.26" stroke="#0693e3" stroke-width="4" fill="none"/><path d="M207 666.05h-4V664h4z" stroke="#0693e3" stroke-width=".05" fill="#0693e3"/><path d="M205 772.53l-4.63-14.27h9.26z" stroke="#0693e3" stroke-width="4" fill="#0693e3"/><path d="M628.5 662v90.26M628.5 662.05V660" stroke="#0693e3" stroke-width="4" fill="none"/><path d="M628.5 768.53l-4.62-14.27h9.27z" stroke="#0693e3" stroke-width="4" fill="#0693e3"/><path d="M1065 662v90.26M1065 662.05V660" stroke="#0693e3" stroke-width="4" fill="none"/><path d="M1065 768.53l-4.63-14.27h9.27z" stroke="#0693e3" stroke-width="4" fill="#0693e3"/><path d="M652.86 583v58.98" stroke="#0693e3" stroke-width="4" fill="none"/><path d="M654.86 583.05h-4V581h4z" stroke="#0693e3" stroke-width=".05" fill="#0693e3"/><path d="M652.86 658.25l-4.64-14.27h9.27z" stroke="#0693e3" stroke-width="4" fill="#0693e3"/><path d="M730 780c27.6 0 50 22.4 50 50s-22.4 50-50 50H530c-27.6 0-50-22.4-50-50s22.4-50 50-50z" stroke="#0693e3" stroke-width="2" fill="#fff"/><use xlink:href="#k" transform="matrix(1,0,0,1,485,785) translate(16.941176470588225 53.54248366013072)"/><path d="M1170 780c27.6 0 50 22.4 50 50s-22.4 50-50 50H970c-27.6 0-50-22.4-50-50s22.4-50 50-50z" stroke="#0693e3" stroke-width="2" fill="#fff"/><use xlink:href="#l" transform="matrix(1,0,0,1,925,785) translate(72.20915032679738 53.54248366013072)"/><path d="M1000 1212c0 13.26-67.16 24-150 24s-150-10.74-150-24v-192c0-13.25 67.16-24 150-24s150 10.75 150 24z" stroke="#0693e3" stroke-width="2" fill="#fff"/><path d="M1000 1020c0 13.26-67.16 24-150 24s-150-10.74-150-24" stroke="#0693e3" stroke-width="2" fill="none"/><use xlink:href="#m" transform="matrix(1,0,0,1,705,1049) translate(64.94117647058823 99.55555555555557)"/><path d="M220 1000h380v180H220z" stroke="#0693e3" stroke-width="2" fill="#fff"/><use xlink:href="#n" transform="matrix(1,0,0,1,232,1012) translate(52.3921568627451 85.9607843137255)"/><use xlink:href="#o" transform="matrix(1,0,0,1,232,1012) translate(215.4248366013072 85.9607843137255)"/><path d="M630 883v45a12 12 0 0 1-12 12H422a12 12 0 0 0-12 12v24.26" stroke="#0693e3" stroke-width="4" fill="none"/><path d="M632 883.05h-4V881h4z" stroke="#0693e3" stroke-width=".05" fill="#0693e3"/><path d="M410 992.53l-4.63-14.27h9.26z" stroke="#0693e3" stroke-width="4" fill="#0693e3"/><path d="M669.55 883v43a12 12 0 0 0 12 12H838a12 12 0 0 1 12 12v22.26" stroke="#0693e3" stroke-width="4" fill="none"/><path d="M671.55 883.05h-4V881h4z" stroke="#0693e3" stroke-width=".05" fill="#0693e3"/><path d="M850 988.53l-4.63-14.27h9.26z" stroke="#0693e3" stroke-width="4" fill="#0693e3"/><defs><path fill="#333" d="M185-189c-5-48-123-54-124 2 14 75 158 14 163 119 3 78-121 87-175 55-17-10-28-26-33-46l33-7c5 56 141 63 141-1 0-78-155-14-162-118-5-82 145-84 179-34 5 7 8 16 11 25" id="p"/><path fill="#333" d="M100-194c63 0 86 42 84 106H49c0 40 14 67 53 68 26 1 43-12 49-29l28 8c-11 28-37 45-77 45C44 4 14-33 15-96c1-61 26-98 85-98zm52 81c6-60-76-77-97-28-3 7-6 17-6 28h103" id="q"/><path fill="#333" d="M114-163C36-179 61-72 57 0H25l-1-190h30c1 12-1 29 2 39 6-27 23-49 58-41v29" id="r"/><path fill="#333" d="M108 0H70L1-190h34L89-25l56-165h34" id="s"/><path fill="#333" d="M24-231v-30h32v30H24zM24 0v-190h32V0H24" id="t"/><path fill="#333" d="M96-169c-40 0-48 33-48 73s9 75 48 75c24 0 41-14 43-38l32 2c-6 37-31 61-74 61-59 0-76-41-82-99-10-93 101-131 147-64 4 7 5 14 7 22l-32 3c-4-21-16-35-41-35" id="u"/><g id="a"><use transform="matrix(0.10457516339869281,0,0,0.10457516339869281,0,0)" xlink:href="#p"/><use transform="matrix(0.10457516339869281,0,0,0.10457516339869281,25.098039215686278,0)" xlink:href="#q"/><use transform="matrix(0.10457516339869281,0,0,0.10457516339869281,46.01307189542484,0)" xlink:href="#r"/><use transform="matrix(0.10457516339869281,0,0,0.10457516339869281,58.45751633986928,0)" xlink:href="#s"/><use transform="matrix(0.10457516339869281,0,0,0.10457516339869281,77.281045751634,0)" xlink:href="#t"/><use transform="matrix(0.10457516339869281,0,0,0.10457516339869281,85.54248366013074,0)" xlink:href="#u"/><use transform="matrix(0.10457516339869281,0,0,0.10457516339869281,104.36601307189544,0)" xlink:href="#q"/></g><path fill="#333" d="M140-251c81 0 123 46 123 126C263-46 219 4 140 4 59 4 17-45 17-125s42-126 123-126zm0 227c63 0 89-41 89-101s-29-99-89-99c-61 0-89 39-89 99S79-25 140-24" id="v"/><path fill="#333" d="M117-194c89-4 53 116 60 194h-32v-121c0-31-8-49-39-48C34-167 62-67 57 0H25l-1-190h30c1 10-1 24 2 32 11-22 29-35 61-36" id="w"/><path fill="#333" d="M59-47c-2 24 18 29 38 22v24C64 9 27 4 27-40v-127H5v-23h24l9-43h21v43h35v23H59v120" id="x"/><path fill="#333" d="M85-194c31 0 48 13 60 33l-1-100h32l1 261h-30c-2-10 0-23-3-31C134-8 116 4 85 4 32 4 16-35 15-94c0-66 23-100 70-100zm9 24c-40 0-46 34-46 75 0 40 6 74 45 74 42 0 51-32 51-76 0-42-9-74-50-73" id="y"/><g id="b"><use transform="matrix(0.10457516339869281,0,0,0.10457516339869281,0,0)" xlink:href="#v"/><use transform="matrix(0.10457516339869281,0,0,0.10457516339869281,29.28104575163399,0)" xlink:href="#r"/><use transform="matrix(0.10457516339869281,0,0,0.10457516339869281,41.72549019607843,0)" xlink:href="#t"/><use transform="matrix(0.10457516339869281,0,0,0.10457516339869281,49.98692810457516,0)" xlink:href="#q"/><use transform="matrix(0.10457516339869281,0,0,0.10457516339869281,70.90196078431373,0)" xlink:href="#w"/><use transform="matrix(0.10457516339869281,0,0,0.10457516339869281,91.81699346405229,0)" xlink:href="#x"/><use transform="matrix(0.10457516339869281,0,0,0.10457516339869281,102.27450980392157,0)" xlink:href="#q"/><use transform="matrix(0.10457516339869281,0,0,0.10457516339869281,123.18954248366013,0)" xlink:href="#y"/></g><path fill="#333" d="M205 0l-28-72H64L36 0H1l101-248h38L239 0h-34zm-38-99l-47-123c-12 45-31 82-46 123h93" id="z"/><path fill="#333" d="M84 4C-5 8 30-112 23-190h32v120c0 31 7 50 39 49 72-2 45-101 50-169h31l1 190h-30c-1-10 1-25-2-33-11 22-28 36-60 37" id="A"/><g id="c"><use transform="matrix(0.10457516339869281,0,0,0.10457516339869281,0,0)" xlink:href="#z"/><use transform="matrix(0.10457516339869281,0,0,0.10457516339869281,25.098039215686278,0)" xlink:href="#r"/><use transform="matrix(0.10457516339869281,0,0,0.10457516339869281,37.54248366013072,0)" xlink:href="#u"/><use transform="matrix(0.10457516339869281,0,0,0.10457516339869281,56.36601307189542,0)" xlink:href="#t"/><use transform="matrix(0.10457516339869281,0,0,0.10457516339869281,64.62745098039215,0)" xlink:href="#x"/><use transform="matrix(0.10457516339869281,0,0,0.10457516339869281,75.08496732026144,0)" xlink:href="#q"/><use transform="matrix(0.10457516339869281,0,0,0.10457516339869281,96,0)" xlink:href="#u"/><use transform="matrix(0.10457516339869281,0,0,0.10457516339869281,114.82352941176471,0)" xlink:href="#x"/><use transform="matrix(0.10457516339869281,0,0,0.10457516339869281,125.281045751634,0)" xlink:href="#A"/><use transform="matrix(0.10457516339869281,0,0,0.10457516339869281,146.19607843137257,0)" xlink:href="#r"/><use transform="matrix(0.10457516339869281,0,0,0.10457516339869281,158.64052287581703,0)" xlink:href="#q"/></g><path fill="#333" d="M115-194c55 1 70 41 70 98S169 2 115 4C84 4 66-9 55-30l1 105H24l-1-265h31l2 30c10-21 28-34 59-34zm-8 174c40 0 45-34 45-75s-6-73-45-74c-42 0-51 32-51 76 0 43 10 73 51 73" id="B"/><path fill="#333" d="M24 0v-261h32V0H24" id="C"/><path fill="#333" d="M141-36C126-15 110 5 73 4 37 3 15-17 15-53c-1-64 63-63 125-63 3-35-9-54-41-54-24 1-41 7-42 31l-33-3c5-37 33-52 76-52 45 0 72 20 72 64v82c-1 20 7 32 28 27v20c-31 9-61-2-59-35zM48-53c0 20 12 33 32 33 41-3 63-29 60-74-43 2-92-5-92 41" id="D"/><path fill="#333" d="M100-194c62-1 85 37 85 99 1 63-27 99-86 99S16-35 15-95c0-66 28-99 85-99zM99-20c44 1 53-31 53-75 0-43-8-75-51-75s-53 32-53 75 10 74 51 75" id="E"/><g id="d"><use transform="matrix(0.10457516339869281,0,0,0.10457516339869281,0,0)" xlink:href="#z"/><use transform="matrix(0.10457516339869281,0,0,0.10457516339869281,25.098039215686278,0)" xlink:href="#B"/><use transform="matrix(0.10457516339869281,0,0,0.10457516339869281,46.01307189542484,0)" xlink:href="#B"/><use transform="matrix(0.10457516339869281,0,0,0.10457516339869281,66.9281045751634,0)" xlink:href="#C"/><use transform="matrix(0.10457516339869281,0,0,0.10457516339869281,75.18954248366015,0)" xlink:href="#t"/><use transform="matrix(0.10457516339869281,0,0,0.10457516339869281,83.45098039215688,0)" xlink:href="#u"/><use transform="matrix(0.10457516339869281,0,0,0.10457516339869281,102.27450980392159,0)" xlink:href="#D"/><use transform="matrix(0.10457516339869281,0,0,0.10457516339869281,123.18954248366016,0)" xlink:href="#x"/><use transform="matrix(0.10457516339869281,0,0,0.10457516339869281,133.64705882352942,0)" xlink:href="#t"/><use transform="matrix(0.10457516339869281,0,0,0.10457516339869281,141.90849673202618,0)" xlink:href="#E"/><use transform="matrix(0.10457516339869281,0,0,0.10457516339869281,162.82352941176472,0)" xlink:href="#w"/></g><path fill="#333" d="M63-220v92h138v28H63V0H30v-248h175v28H63" id="F"/><g id="e"><use transform="matrix(0.10457516339869281,0,0,0.10457516339869281,0,0)" xlink:href="#F"/><use transform="matrix(0.10457516339869281,0,0,0.10457516339869281,22.90196078431373,0)" xlink:href="#r"/><use transform="matrix(0.10457516339869281,0,0,0.10457516339869281,35.34640522875818,0)" xlink:href="#E"/><use transform="matrix(0.10457516339869281,0,0,0.10457516339869281,56.26143790849673,0)" xlink:href="#w"/><use transform="matrix(0.10457516339869281,0,0,0.10457516339869281,77.1764705882353,0)" xlink:href="#x"/><use transform="matrix(0.10457516339869281,0,0,0.10457516339869281,87.63398692810459,0)" xlink:href="#q"/><use transform="matrix(0.10457516339869281,0,0,0.10457516339869281,108.54901960784314,0)" xlink:href="#w"/><use transform="matrix(0.10457516339869281,0,0,0.10457516339869281,129.46405228758172,0)" xlink:href="#y"/></g><g id="f"><use transform="matrix(0.10457516339869281,0,0,0.10457516339869281,0,0)" xlink:href="#p"/><use transform="matrix(0.10457516339869281,0,0,0.10457516339869281,25.098039215686278,0)" xlink:href="#q"/><use transform="matrix(0.10457516339869281,0,0,0.10457516339869281,46.01307189542484,0)" xlink:href="#r"/><use transform="matrix(0.10457516339869281,0,0,0.10457516339869281,58.45751633986928,0)" xlink:href="#s"/><use transform="matrix(0.10457516339869281,0,0,0.10457516339869281,77.281045751634,0)" xlink:href="#t"/><use transform="matrix(0.10457516339869281,0,0,0.10457516339869281,85.54248366013074,0)" xlink:href="#u"/><use transform="matrix(0.10457516339869281,0,0,0.10457516339869281,104.36601307189544,0)" xlink:href="#q"/></g><path fill="#333" d="M160-131c35 5 61 23 61 61C221 17 115-2 30 0v-248c76 3 177-17 177 60 0 33-19 50-47 57zm-97-11c50-1 110 9 110-42 0-47-63-36-110-37v79zm0 115c55-2 124 14 124-45 0-56-70-42-124-44v89" id="G"/><path fill="#333" d="M135-143c-3-34-86-38-87 0 15 53 115 12 119 90S17 21 10-45l28-5c4 36 97 45 98 0-10-56-113-15-118-90-4-57 82-63 122-42 12 7 21 19 24 35" id="H"/><g id="g"><use transform="matrix(0.10457516339869281,0,0,0.10457516339869281,0,0)" xlink:href="#G"/><use transform="matrix(0.10457516339869281,0,0,0.10457516339869281,25.098039215686278,0)" xlink:href="#A"/><use transform="matrix(0.10457516339869281,0,0,0.10457516339869281,46.01307189542484,0)" xlink:href="#H"/></g><g id="h"><use transform="matrix(0.10457516339869281,0,0,0.10457516339869281,0,0)" xlink:href="#p"/><use transform="matrix(0.10457516339869281,0,0,0.10457516339869281,25.098039215686278,0)" xlink:href="#q"/><use transform="matrix(0.10457516339869281,0,0,0.10457516339869281,46.01307189542484,0)" xlink:href="#r"/><use transform="matrix(0.10457516339869281,0,0,0.10457516339869281,58.45751633986928,0)" xlink:href="#s"/><use transform="matrix(0.10457516339869281,0,0,0.10457516339869281,77.281045751634,0)" xlink:href="#t"/><use transform="matrix(0.10457516339869281,0,0,0.10457516339869281,85.54248366013074,0)" xlink:href="#u"/><use transform="matrix(0.10457516339869281,0,0,0.10457516339869281,104.36601307189544,0)" xlink:href="#q"/></g><path fill="#333" d="M233-177c-1 41-23 64-60 70L243 0h-38l-65-103H63V0H30v-248c88 3 205-21 203 71zM63-129c60-2 137 13 137-47 0-61-80-42-137-45v92" id="I"/><path fill="#333" d="M179-190L93 31C79 59 56 82 12 73V49c39 6 53-20 64-50L1-190h34L92-34l54-156h33" id="J"/><g id="i"><use transform="matrix(0.10457516339869281,0,0,0.10457516339869281,0,0)" xlink:href="#I"/><use transform="matrix(0.10457516339869281,0,0,0.10457516339869281,27.084967320261438,0)" xlink:href="#q"/><use transform="matrix(0.10457516339869281,0,0,0.10457516339869281,48.00000000000001,0)" xlink:href="#B"/><use transform="matrix(0.10457516339869281,0,0,0.10457516339869281,68.91503267973857,0)" xlink:href="#E"/><use transform="matrix(0.10457516339869281,0,0,0.10457516339869281,89.83006535947713,0)" xlink:href="#H"/><use transform="matrix(0.10457516339869281,0,0,0.10457516339869281,108.65359477124183,0)" xlink:href="#t"/><use transform="matrix(0.10457516339869281,0,0,0.10457516339869281,116.91503267973859,0)" xlink:href="#x"/><use transform="matrix(0.10457516339869281,0,0,0.10457516339869281,127.37254901960787,0)" xlink:href="#E"/><use transform="matrix(0.10457516339869281,0,0,0.10457516339869281,148.28758169934642,0)" xlink:href="#r"/><use transform="matrix(0.10457516339869281,0,0,0.10457516339869281,160.73202614379088,0)" xlink:href="#J"/></g><path fill="#333" d="M212-179c-10-28-35-45-73-45-59 0-87 40-87 99 0 60 29 101 89 101 43 0 62-24 78-52l27 14C228-24 195 4 139 4 59 4 22-46 18-125c-6-104 99-153 187-111 19 9 31 26 39 46" id="K"/><g id="j"><use transform="matrix(0.10457516339869281,0,0,0.10457516339869281,0,0)" xlink:href="#K"/><use transform="matrix(0.10457516339869281,0,0,0.10457516339869281,27.084967320261438,0)" xlink:href="#E"/><use transform="matrix(0.10457516339869281,0,0,0.10457516339869281,48.00000000000001,0)" xlink:href="#w"/><use transform="matrix(0.10457516339869281,0,0,0.10457516339869281,68.91503267973857,0)" xlink:href="#x"/><use transform="matrix(0.10457516339869281,0,0,0.10457516339869281,79.37254901960786,0)" xlink:href="#r"/><use transform="matrix(0.10457516339869281,0,0,0.10457516339869281,91.8169934640523,0)" xlink:href="#D"/><use transform="matrix(0.10457516339869281,0,0,0.10457516339869281,112.73202614379085,0)" xlink:href="#u"/><use transform="matrix(0.10457516339869281,0,0,0.10457516339869281,131.55555555555557,0)" xlink:href="#x"/></g><path fill="#333" d="M33 0v-248h34V0H33" id="L"/><path fill="#333" d="M210-169c-67 3-38 105-44 169h-31v-121c0-29-5-50-35-48C34-165 62-65 56 0H25l-1-190h30c1 10-1 24 2 32 10-44 99-50 107 0 11-21 27-35 58-36 85-2 47 119 55 194h-31v-121c0-29-5-49-35-48" id="M"/><g id="k"><use transform="matrix(0.10457516339869281,0,0,0.10457516339869281,0,0)" xlink:href="#L"/><use transform="matrix(0.10457516339869281,0,0,0.10457516339869281,10.457516339869281,0)" xlink:href="#M"/><use transform="matrix(0.10457516339869281,0,0,0.10457516339869281,41.72549019607844,0)" xlink:href="#B"/><use transform="matrix(0.10457516339869281,0,0,0.10457516339869281,62.640522875817005,0)" xlink:href="#C"/><use transform="matrix(0.10457516339869281,0,0,0.10457516339869281,70.90196078431374,0)" xlink:href="#q"/><use transform="matrix(0.10457516339869281,0,0,0.10457516339869281,91.8169934640523,0)" xlink:href="#M"/><use transform="matrix(0.10457516339869281,0,0,0.10457516339869281,123.08496732026147,0)" xlink:href="#q"/><use transform="matrix(0.10457516339869281,0,0,0.10457516339869281,144.00000000000003,0)" xlink:href="#w"/><use transform="matrix(0.10457516339869281,0,0,0.10457516339869281,164.9150326797386,0)" xlink:href="#x"/><use transform="matrix(0.10457516339869281,0,0,0.10457516339869281,175.37254901960787,0)" xlink:href="#D"/><use transform="matrix(0.10457516339869281,0,0,0.10457516339869281,196.28758169934645,0)" xlink:href="#x"/><use transform="matrix(0.10457516339869281,0,0,0.10457516339869281,206.74509803921572,0)" xlink:href="#t"/><use transform="matrix(0.10457516339869281,0,0,0.10457516339869281,215.00653594771248,0)" xlink:href="#E"/><use transform="matrix(0.10457516339869281,0,0,0.10457516339869281,235.92156862745102,0)" xlink:href="#w"/></g><path fill="#333" d="M101-234c-31-9-42 10-38 44h38v23H63V0H32v-167H5v-23h27c-7-52 17-82 69-68v24" id="N"/><g id="l"><use transform="matrix(0.10457516339869281,0,0,0.10457516339869281,0,0)" xlink:href="#L"/><use transform="matrix(0.10457516339869281,0,0,0.10457516339869281,10.457516339869281,0)" xlink:href="#w"/><use transform="matrix(0.10457516339869281,0,0,0.10457516339869281,31.372549019607845,0)" xlink:href="#x"/><use transform="matrix(0.10457516339869281,0,0,0.10457516339869281,41.830065359477125,0)" xlink:href="#q"/><use transform="matrix(0.10457516339869281,0,0,0.10457516339869281,62.74509803921569,0)" xlink:href="#r"/><use transform="matrix(0.10457516339869281,0,0,0.10457516339869281,75.18954248366015,0)" xlink:href="#N"/><use transform="matrix(0.10457516339869281,0,0,0.10457516339869281,85.64705882352942,0)" xlink:href="#D"/><use transform="matrix(0.10457516339869281,0,0,0.10457516339869281,106.56209150326798,0)" xlink:href="#u"/><use transform="matrix(0.10457516339869281,0,0,0.10457516339869281,125.38562091503269,0)" xlink:href="#q"/></g><path fill="#333" d="M30-248c118-7 216 8 213 122C240-48 200 0 122 0H30v-248zM63-27c89 8 146-16 146-99s-60-101-146-95v194" id="O"/><g id="m"><use transform="matrix(0.10457516339869281,0,0,0.10457516339869281,0,0)" xlink:href="#O"/><use transform="matrix(0.10457516339869281,0,0,0.10457516339869281,27.084967320261438,0)" xlink:href="#D"/><use transform="matrix(0.10457516339869281,0,0,0.10457516339869281,48.00000000000001,0)" xlink:href="#x"/><use transform="matrix(0.10457516339869281,0,0,0.10457516339869281,58.457516339869294,0)" xlink:href="#D"/><use transform="matrix(0.10457516339869281,0,0,0.10457516339869281,79.37254901960786,0)" xlink:href="#H"/><use transform="matrix(0.10457516339869281,0,0,0.10457516339869281,98.19607843137256,0)" xlink:href="#x"/><use transform="matrix(0.10457516339869281,0,0,0.10457516339869281,108.65359477124183,0)" xlink:href="#E"/><use transform="matrix(0.10457516339869281,0,0,0.10457516339869281,129.56862745098042,0)" xlink:href="#r"/><use transform="matrix(0.10457516339869281,0,0,0.10457516339869281,142.01307189542484,0)" xlink:href="#q"/></g><g id="n"><use transform="matrix(0.10457516339869281,0,0,0.10457516339869281,0,0)" xlink:href="#G"/><use transform="matrix(0.10457516339869281,0,0,0.10457516339869281,25.098039215686278,0)" xlink:href="#A"/><use transform="matrix(0.10457516339869281,0,0,0.10457516339869281,46.01307189542484,0)" xlink:href="#H"/><use transform="matrix(0.10457516339869281,0,0,0.10457516339869281,64.83660130718954,0)" xlink:href="#t"/><use transform="matrix(0.10457516339869281,0,0,0.10457516339869281,73.09803921568628,0)" xlink:href="#w"/><use transform="matrix(0.10457516339869281,0,0,0.10457516339869281,94.01307189542484,0)" xlink:href="#q"/><use transform="matrix(0.10457516339869281,0,0,0.10457516339869281,114.92810457516343,0)" xlink:href="#H"/><use transform="matrix(0.10457516339869281,0,0,0.10457516339869281,133.7516339869281,0)" xlink:href="#H"/></g><path fill="#333" d="M30 0v-248h33v221h125V0H30" id="P"/><path fill="#333" d="M177-190C167-65 218 103 67 71c-23-6-38-20-44-43l32-5c15 47 100 32 89-28v-30C133-14 115 1 83 1 29 1 15-40 15-95c0-56 16-97 71-98 29-1 48 16 59 35 1-10 0-23 2-32h30zM94-22c36 0 50-32 50-73 0-42-14-75-50-75-39 0-46 34-46 75s6 73 46 73" id="Q"/><g id="o"><use transform="matrix(0.10457516339869281,0,0,0.10457516339869281,0,0)" xlink:href="#P"/><use transform="matrix(0.10457516339869281,0,0,0.10457516339869281,20.915032679738562,0)" xlink:href="#E"/><use transform="matrix(0.10457516339869281,0,0,0.10457516339869281,41.830065359477125,0)" xlink:href="#Q"/><use transform="matrix(0.10457516339869281,0,0,0.10457516339869281,62.74509803921569,0)" xlink:href="#t"/><use transform="matrix(0.10457516339869281,0,0,0.10457516339869281,71.00653594771242,0)" xlink:href="#u"/></g></defs></g></svg>