<svg xmlns="http://www.w3.org/2000/svg" xmlns:xlink="http://www.w3.org/1999/xlink" xmlns:lucid="lucid" width="1320" height="303.22"><g transform="translate(-40 -220)" lucid:page-tab-id="bVOA89e2dcA1"><path d="M80 320h200v183.22H80z" stroke="#333" stroke-width="2" fill="#fff"/><use xlink:href="#a" transform="matrix(1,0,0,1,92,332) translate(0 21.620915032679772)"/><use xlink:href="#b" transform="matrix(1,0,0,1,92,332) translate(26.535947712418288 21.620915032679772)"/><use xlink:href="#c" transform="matrix(1,0,0,1,92,332) translate(26.535947712418288 53.46405228758172)"/><use xlink:href="#d" transform="matrix(1,0,0,1,92,332) translate(0 85.30718954248367)"/><use xlink:href="#e" transform="matrix(1,0,0,1,92,332) translate(26.535947712418288 85.30718954248367)"/><use xlink:href="#f" transform="matrix(1,0,0,1,92,332) translate(26.535947712418288 117.15032679738562)"/><use xlink:href="#g" transform="matrix(1,0,0,1,92,332) translate(26.535947712418288 148.99346405228755)"/><path d="M60 240h240v60H60z" stroke="#000" stroke-opacity="0" stroke-width="2" fill="#fff" fill-opacity="0"/><use xlink:href="#h" transform="matrix(1,0,0,1,65,245) translate(85.37037037037038 30.333333333333332)"/><path d="M1120 351.6h200v120h-200z" stroke="#333" stroke-width="2" fill="#fff"/><use xlink:href="#i" transform="matrix(1,0,0,1,1132,363.6078431372549) translate(0 37.38562091503268)"/><use xlink:href="#f" transform="matrix(1,0,0,1,1132,363.6078431372549) translate(66.26615831517789 37.38562091503268)"/><use xlink:href="#g" transform="matrix(1,0,0,1,1132,363.6078431372549) translate(0 69.22875816993464)"/><path d="M1100 260h240v60h-240z" stroke="#000" stroke-opacity="0" stroke-width="2" fill="#fff" fill-opacity="0"/><use xlink:href="#j" transform="matrix(1,0,0,1,1105,265.00000000000006) translate(75 30.333333333333332)"/><path d="M400 320h600v183.22H400z" stroke="#333" stroke-width="2" fill="#fff"/><path d="M571.43 240h257.14v60H571.43z" stroke="#000" stroke-opacity="0" stroke-width="2" fill="#fff" fill-opacity="0"/><use xlink:href="#k" transform="matrix(1,0,0,1,576.4285714285714,245) translate(24.14814814814818 30.333333333333332)"/><use xlink:href="#l" transform="matrix(1,0,0,1,576.4285714285714,245) translate(151.4074074074074 30.333333333333332)"/><path d="M300.94 397.93l47.82 2.5.94-17.87L380 420l-34.06 34.07.94-17.88-47.82-2.52zM525.4 357c30.15 0 54.6 24.45 54.6 54.6 0 30.16-24.45 54.6-54.6 54.6h-50.8c-30.16 0-54.6-24.44-54.6-54.6 0-30.15 24.44-54.6 54.6-54.6z" stroke="#333" stroke-width="2" fill="#fff"/><use xlink:href="#m" transform="matrix(1,0,0,1,425,362.0078431372549) translate(49.779012345679014 22.444444444444446)"/><use xlink:href="#n" transform="matrix(1,0,0,1,425,362.0078431372549) translate(23.792592592592605 55.511111111111106)"/><use xlink:href="#o" transform="matrix(1,0,0,1,425,362.0078431372549) translate(29.916049382716054 88.57777777777777)"/><path d="M744.3 371.6c22.08 0 40 17.92 40 40 0 22.1-17.92 40-40 40h-80c-22.1 0-40-17.9-40-40 0-22.08 17.9-40 40-40z" stroke="#333" stroke-width="2" fill="#fff"/><g><use xlink:href="#p" transform="matrix(1,0,0,1,629.2857142857142,376.6078431372549) translate(22.9888888888889 23.977777777777778)"/><use xlink:href="#o" transform="matrix(1,0,0,1,629.2857142857142,376.6078431372549) translate(29.916049382716054 57.04444444444444)"/></g><path d="M948.57 371.6c22.1 0 40 17.92 40 40 0 22.1-17.9 40-40 40h-80c-22.1 0-40-17.9-40-40 0-22.08 17.9-40 40-40z" stroke="#333" stroke-width="2" fill="#fff"/><g><use xlink:href="#q" transform="matrix(1,0,0,1,833.5714285714286,376.6078431372549) translate(24.519753086419755 23.977777777777778)"/><use xlink:href="#o" transform="matrix(1,0,0,1,833.5714285714286,376.6078431372549) translate(29.916049382716054 57.04444444444444)"/></g><path d="M582 411.6h22.78" stroke="#333" stroke-width="2" fill="none"/><path d="M582.03 412.6h-1.07l.04-.97v-.84l-.02-.2h1.05z" stroke="#333" stroke-width=".05" fill="#333"/><path d="M620.05 411.6l-14.27 4.64v-9.27z" stroke="#333" stroke-width="2" fill="#333"/><path d="M786.3 411.6h22.77" stroke="#333" stroke-width="2" fill="none"/><path d="M786.3 412.6h-1.07l.06-.98-.05-1h1.06z" stroke="#333" stroke-width=".05" fill="#333"/><path d="M824.34 411.6l-14.27 4.64v-9.27z" stroke="#333" stroke-width="2" fill="#333"/><g><path d="M1020.94 408.38l47.82 2.5.94-17.87 30.3 37.45-34.06 34.07.94-17.88-47.82-2.5z" stroke="#333" stroke-width="2" fill="#fff"/></g><defs><path fill="#333" d="M27 0v-27h64v-190l-56 39v-29l58-41h29v221h61V0H27" id="r"/><path fill="#333" d="M33 0v-38h34V0H33" id="s"/><g id="a"><use transform="matrix(0.07371096586782858,0,0,0.07371096586782858,0,0)" xlink:href="#r"/><use transform="matrix(0.07371096586782858,0,0,0.07371096586782858,14.742193173565715,0)" xlink:href="#s"/></g><path fill="#333" d="M127-220V0H93v-220H8v-28h204v28h-85" id="t"/><path fill="#333" d="M100-194c63 0 86 42 84 106H49c0 40 14 67 53 68 26 1 43-12 49-29l28 8c-11 28-37 45-77 45C44 4 14-33 15-96c1-61 26-98 85-98zm52 81c6-60-76-77-97-28-3 7-6 17-6 28h103" id="u"/><path fill="#333" d="M141 0L90-78 38 0H4l68-98-65-92h35l48 74 47-74h35l-64 92 68 98h-35" id="v"/><path fill="#333" d="M59-47c-2 24 18 29 38 22v24C64 9 27 4 27-40v-127H5v-23h24l9-43h21v43h35v23H59v120" id="w"/><g id="b"><use transform="matrix(0.07371096586782858,0,0,0.07371096586782858,0,0)" xlink:href="#t"/><use transform="matrix(0.07371096586782858,0,0,0.07371096586782858,13.194262890341317,0)" xlink:href="#u"/><use transform="matrix(0.07371096586782858,0,0,0.07371096586782858,27.93645606390703,0)" xlink:href="#v"/><use transform="matrix(0.07371096586782858,0,0,0.07371096586782858,41.204429920116176,0)" xlink:href="#w"/></g><path fill="#333" d="M114-163C36-179 61-72 57 0H25l-1-190h30c1 12-1 29 2 39 6-27 23-49 58-41v29" id="x"/><path fill="#333" d="M141-36C126-15 110 5 73 4 37 3 15-17 15-53c-1-64 63-63 125-63 3-35-9-54-41-54-24 1-41 7-42 31l-33-3c5-37 33-52 76-52 45 0 72 20 72 64v82c-1 20 7 32 28 27v20c-31 9-61-2-59-35zM48-53c0 20 12 33 32 33 41-3 63-29 60-74-43 2-92-5-92 41" id="y"/><path fill="#333" d="M117-194c89-4 53 116 60 194h-32v-121c0-31-8-49-39-48C34-167 62-67 57 0H25l-1-190h30c1 10-1 24 2 32 11-22 29-35 61-36" id="z"/><path fill="#333" d="M135-143c-3-34-86-38-87 0 15 53 115 12 119 90S17 21 10-45l28-5c4 36 97 45 98 0-10-56-113-15-118-90-4-57 82-63 122-42 12 7 21 19 24 35" id="A"/><path fill="#333" d="M96-169c-40 0-48 33-48 73s9 75 48 75c24 0 41-14 43-38l32 2c-6 37-31 61-74 61-59 0-76-41-82-99-10-93 101-131 147-64 4 7 5 14 7 22l-32 3c-4-21-16-35-41-35" id="B"/><path fill="#333" d="M24-231v-30h32v30H24zM24 0v-190h32V0H24" id="C"/><path fill="#333" d="M115-194c55 1 70 41 70 98S169 2 115 4C84 4 66-9 55-30l1 105H24l-1-265h31l2 30c10-21 28-34 59-34zm-8 174c40 0 45-34 45-75s-6-73-45-74c-42 0-51 32-51 76 0 43 10 73 51 73" id="D"/><g id="c"><use transform="matrix(0.07371096586782858,0,0,0.07371096586782858,0,0)" xlink:href="#t"/><use transform="matrix(0.07371096586782858,0,0,0.07371096586782858,15.184458968772688,0)" xlink:href="#x"/><use transform="matrix(0.07371096586782858,0,0,0.07371096586782858,23.95606390704429,0)" xlink:href="#y"/><use transform="matrix(0.07371096586782858,0,0,0.07371096586782858,38.698257080610006,0)" xlink:href="#z"/><use transform="matrix(0.07371096586782858,0,0,0.07371096586782858,53.44045025417573,0)" xlink:href="#A"/><use transform="matrix(0.07371096586782858,0,0,0.07371096586782858,66.70842411038487,0)" xlink:href="#B"/><use transform="matrix(0.07371096586782858,0,0,0.07371096586782858,79.976397966594,0)" xlink:href="#x"/><use transform="matrix(0.07371096586782858,0,0,0.07371096586782858,88.74800290486563,0)" xlink:href="#C"/><use transform="matrix(0.07371096586782858,0,0,0.07371096586782858,94.57116920842407,0)" xlink:href="#D"/><use transform="matrix(0.07371096586782858,0,0,0.07371096586782858,109.31336238198978,0)" xlink:href="#w"/></g><path fill="#333" d="M101-251c82-7 93 87 43 132L82-64C71-53 59-42 53-27h129V0H18c2-99 128-94 128-182 0-28-16-43-45-43s-46 15-49 41l-32-3c6-41 34-60 81-64" id="E"/><g id="d"><use transform="matrix(0.07371096586782858,0,0,0.07371096586782858,0,0)" xlink:href="#E"/><use transform="matrix(0.07371096586782858,0,0,0.07371096586782858,14.742193173565715,0)" xlink:href="#s"/></g><path fill="#333" d="M177-190C167-65 218 103 67 71c-23-6-38-20-44-43l32-5c15 47 100 32 89-28v-30C133-14 115 1 83 1 29 1 15-40 15-95c0-56 16-97 71-98 29-1 48 16 59 35 1-10 0-23 2-32h30zM94-22c36 0 50-32 50-73 0-42-14-75-50-75-39 0-46 34-46 75s6 73 46 73" id="F"/><g id="e"><use transform="matrix(0.07371096586782858,0,0,0.07371096586782858,0,0)" xlink:href="#t"/><use transform="matrix(0.07371096586782858,0,0,0.07371096586782858,13.194262890341317,0)" xlink:href="#y"/><use transform="matrix(0.07371096586782858,0,0,0.07371096586782858,27.93645606390703,0)" xlink:href="#x"/><use transform="matrix(0.07371096586782858,0,0,0.07371096586782858,36.70806100217863,0)" xlink:href="#F"/><use transform="matrix(0.07371096586782858,0,0,0.07371096586782858,51.45025417574435,0)" xlink:href="#u"/><use transform="matrix(0.07371096586782858,0,0,0.07371096586782858,66.19244734931006,0)" xlink:href="#w"/></g><path fill="#333" d="M185-189c-5-48-123-54-124 2 14 75 158 14 163 119 3 78-121 87-175 55-17-10-28-26-33-46l33-7c5 56 141 63 141-1 0-78-155-14-162-118-5-82 145-84 179-34 5 7 8 16 11 25" id="G"/><path fill="#333" d="M143 0L79-87 56-68V0H24v-261h32v163l83-92h37l-77 82L181 0h-38" id="H"/><g id="f"><use transform="matrix(0.07371096586782858,0,0,0.07371096586782858,0,0)" xlink:href="#G"/><use transform="matrix(0.07371096586782858,0,0,0.07371096586782858,17.69063180827886,0)" xlink:href="#D"/><use transform="matrix(0.07371096586782858,0,0,0.07371096586782858,32.432824981844576,0)" xlink:href="#u"/><use transform="matrix(0.07371096586782858,0,0,0.07371096586782858,47.175018155410285,0)" xlink:href="#y"/><use transform="matrix(0.07371096586782858,0,0,0.07371096586782858,61.91721132897601,0)" xlink:href="#H"/><use transform="matrix(0.07371096586782858,0,0,0.07371096586782858,75.18518518518515,0)" xlink:href="#u"/><use transform="matrix(0.07371096586782858,0,0,0.07371096586782858,89.92737835875086,0)" xlink:href="#x"/></g><path fill="#333" d="M233-177c-1 41-23 64-60 70L243 0h-38l-65-103H63V0H30v-248c88 3 205-21 203 71zM63-129c60-2 137 13 137-47 0-61-80-42-137-45v92" id="I"/><path fill="#333" d="M100-194c62-1 85 37 85 99 1 63-27 99-86 99S16-35 15-95c0-66 28-99 85-99zM99-20c44 1 53-31 53-75 0-43-8-75-51-75s-53 32-53 75 10 74 51 75" id="J"/><path fill="#333" d="M85-194c31 0 48 13 60 33l-1-100h32l1 261h-30c-2-10 0-23-3-31C134-8 116 4 85 4 32 4 16-35 15-94c0-66 23-100 70-100zm9 24c-40 0-46 34-46 75 0 40 6 74 45 74 42 0 51-32 51-76 0-42-9-74-50-73" id="K"/><g id="g"><use transform="matrix(0.07371096586782858,0,0,0.07371096586782858,0,0)" xlink:href="#I"/><use transform="matrix(0.07371096586782858,0,0,0.07371096586782858,19.0911401597676,0)" xlink:href="#u"/><use transform="matrix(0.07371096586782858,0,0,0.07371096586782858,33.833333333333314,0)" xlink:href="#B"/><use transform="matrix(0.07371096586782858,0,0,0.07371096586782858,47.10130718954246,0)" xlink:href="#J"/><use transform="matrix(0.07371096586782858,0,0,0.07371096586782858,61.84350036310818,0)" xlink:href="#x"/><use transform="matrix(0.07371096586782858,0,0,0.07371096586782858,70.61510530137977,0)" xlink:href="#K"/><use transform="matrix(0.07371096586782858,0,0,0.07371096586782858,85.35729847494548,0)" xlink:href="#C"/><use transform="matrix(0.07371096586782858,0,0,0.07371096586782858,91.18046477850393,0)" xlink:href="#z"/><use transform="matrix(0.07371096586782858,0,0,0.07371096586782858,105.92265795206964,0)" xlink:href="#F"/></g><path fill="#333" d="M33 0v-248h34V0H33" id="L"/><path fill="#333" d="M84 4C-5 8 30-112 23-190h32v120c0 31 7 50 39 49 72-2 45-101 50-169h31l1 190h-30c-1-10 1-25-2-33-11 22-28 36-60 37" id="M"/><g id="h"><use transform="matrix(0.07407407407407407,0,0,0.07407407407407407,0,0)" xlink:href="#L"/><use transform="matrix(0.07407407407407407,0,0,0.07407407407407407,7.4074074074074066,0)" xlink:href="#z"/><use transform="matrix(0.07407407407407407,0,0,0.07407407407407407,22.22222222222222,0)" xlink:href="#D"/><use transform="matrix(0.07407407407407407,0,0,0.07407407407407407,37.03703703703704,0)" xlink:href="#M"/><use transform="matrix(0.07407407407407407,0,0,0.07407407407407407,51.85185185185185,0)" xlink:href="#w"/></g><path fill="#333" d="M63-220v92h138v28H63V0H30v-248h175v28H63" id="N"/><g id="i"><use transform="matrix(0.07371096586782858,0,0,0.07371096586782858,0,0)" xlink:href="#N"/><use transform="matrix(0.07371096586782858,0,0,0.07371096586782858,16.14270152505446,0)" xlink:href="#y"/><use transform="matrix(0.07371096586782858,0,0,0.07371096586782858,30.884894698620172,0)" xlink:href="#H"/><use transform="matrix(0.07371096586782858,0,0,0.07371096586782858,44.15286855482932,0)" xlink:href="#u"/></g><path fill="#333" d="M140-251c81 0 123 46 123 126C263-46 219 4 140 4 59 4 17-45 17-125s42-126 123-126zm0 227c63 0 89-41 89-101s-29-99-89-99c-61 0-89 39-89 99S79-25 140-24" id="O"/><g id="j"><use transform="matrix(0.07407407407407407,0,0,0.07407407407407407,0,0)" xlink:href="#O"/><use transform="matrix(0.07407407407407407,0,0,0.07407407407407407,20.74074074074074,0)" xlink:href="#M"/><use transform="matrix(0.07407407407407407,0,0,0.07407407407407407,35.55555555555556,0)" xlink:href="#w"/><use transform="matrix(0.07407407407407407,0,0,0.07407407407407407,42.96296296296296,0)" xlink:href="#D"/><use transform="matrix(0.07407407407407407,0,0,0.07407407407407407,57.77777777777777,0)" xlink:href="#M"/><use transform="matrix(0.07407407407407407,0,0,0.07407407407407407,72.59259259259258,0)" xlink:href="#w"/></g><path fill="#333" d="M143 4C61 4 22-44 18-125c-5-107 100-154 193-111 17 8 29 25 37 43l-32 9c-13-25-37-40-76-40-61 0-88 39-88 99 0 61 29 100 91 101 35 0 62-11 79-27v-45h-74v-28h105v86C228-13 192 4 143 4" id="P"/><g id="k"><use transform="matrix(0.07407407407407407,0,0,0.07407407407407407,0,0)" xlink:href="#P"/><use transform="matrix(0.07407407407407407,0,0,0.07407407407407407,20.74074074074074,0)" xlink:href="#u"/><use transform="matrix(0.07407407407407407,0,0,0.07407407407407407,35.55555555555556,0)" xlink:href="#z"/><use transform="matrix(0.07407407407407407,0,0,0.07407407407407407,50.37037037037037,0)" xlink:href="#u"/><use transform="matrix(0.07407407407407407,0,0,0.07407407407407407,65.18518518518518,0)" xlink:href="#x"/><use transform="matrix(0.07407407407407407,0,0,0.07407407407407407,73.99999999999999,0)" xlink:href="#y"/><use transform="matrix(0.07407407407407407,0,0,0.07407407407407407,88.8148148148148,0)" xlink:href="#w"/><use transform="matrix(0.07407407407407407,0,0,0.07407407407407407,96.2222222222222,0)" xlink:href="#J"/><use transform="matrix(0.07407407407407407,0,0,0.07407407407407407,111.03703703703701,0)" xlink:href="#x"/></g><path fill="#333" d="M240 0l2-218c-23 76-54 145-80 218h-23L58-218 59 0H30v-248h44l77 211c21-75 51-140 76-211h43V0h-30" id="Q"/><path fill="#333" d="M24 0v-261h32V0H24" id="R"/><g id="l"><use transform="matrix(0.07407407407407407,0,0,0.07407407407407407,0,0)" xlink:href="#Q"/><use transform="matrix(0.07407407407407407,0,0,0.07407407407407407,22.148148148148145,0)" xlink:href="#J"/><use transform="matrix(0.07407407407407407,0,0,0.07407407407407407,36.96296296296296,0)" xlink:href="#K"/><use transform="matrix(0.07407407407407407,0,0,0.07407407407407407,51.77777777777777,0)" xlink:href="#u"/><use transform="matrix(0.07407407407407407,0,0,0.07407407407407407,66.59259259259258,0)" xlink:href="#R"/></g><g id="m"><use transform="matrix(0.0765432098765432,0,0,0.0765432098765432,0,0)" xlink:href="#t"/><use transform="matrix(0.0765432098765432,0,0,0.0765432098765432,13.701234567901231,0)" xlink:href="#u"/><use transform="matrix(0.0765432098765432,0,0,0.0765432098765432,29.00987654320987,0)" xlink:href="#v"/><use transform="matrix(0.0765432098765432,0,0,0.0765432098765432,42.78765432098765,0)" xlink:href="#w"/></g><path fill="#333" d="M205 0l-28-72H64L36 0H1l101-248h38L239 0h-34zm-38-99l-47-123c-12 45-31 82-46 123h93" id="S"/><path fill="#333" d="M179-190L93 31C79 59 56 82 12 73V49c39 6 53-20 64-50L1-190h34L92-34l54-156h33" id="T"/><g id="n"><use transform="matrix(0.0765432098765432,0,0,0.0765432098765432,0,0)" xlink:href="#S"/><use transform="matrix(0.0765432098765432,0,0,0.0765432098765432,18.370370370370367,0)" xlink:href="#z"/><use transform="matrix(0.0765432098765432,0,0,0.0765432098765432,33.679012345679006,0)" xlink:href="#y"/><use transform="matrix(0.0765432098765432,0,0,0.0765432098765432,48.987654320987644,0)" xlink:href="#R"/><use transform="matrix(0.0765432098765432,0,0,0.0765432098765432,55.03456790123456,0)" xlink:href="#T"/><use transform="matrix(0.0765432098765432,0,0,0.0765432098765432,68.81234567901234,0)" xlink:href="#A"/><use transform="matrix(0.0765432098765432,0,0,0.0765432098765432,82.59012345679011,0)" xlink:href="#C"/><use transform="matrix(0.0765432098765432,0,0,0.0765432098765432,88.63703703703703,0)" xlink:href="#A"/></g><g id="o"><use transform="matrix(0.0765432098765432,0,0,0.0765432098765432,0,0)" xlink:href="#Q"/><use transform="matrix(0.0765432098765432,0,0,0.0765432098765432,22.886419753086418,0)" xlink:href="#J"/><use transform="matrix(0.0765432098765432,0,0,0.0765432098765432,38.19506172839506,0)" xlink:href="#K"/><use transform="matrix(0.0765432098765432,0,0,0.0765432098765432,53.5037037037037,0)" xlink:href="#M"/><use transform="matrix(0.0765432098765432,0,0,0.0765432098765432,68.81234567901234,0)" xlink:href="#R"/><use transform="matrix(0.0765432098765432,0,0,0.0765432098765432,74.85925925925925,0)" xlink:href="#u"/></g><g id="p"><use transform="matrix(0.0765432098765432,0,0,0.0765432098765432,0,0)" xlink:href="#S"/><use transform="matrix(0.0765432098765432,0,0,0.0765432098765432,18.370370370370367,0)" xlink:href="#B"/><use transform="matrix(0.0765432098765432,0,0,0.0765432098765432,32.148148148148145,0)" xlink:href="#J"/><use transform="matrix(0.0765432098765432,0,0,0.0765432098765432,47.456790123456784,0)" xlink:href="#M"/><use transform="matrix(0.0765432098765432,0,0,0.0765432098765432,62.76543209876542,0)" xlink:href="#A"/><use transform="matrix(0.0765432098765432,0,0,0.0765432098765432,76.5432098765432,0)" xlink:href="#w"/><use transform="matrix(0.0765432098765432,0,0,0.0765432098765432,84.19753086419752,0)" xlink:href="#C"/><use transform="matrix(0.0765432098765432,0,0,0.0765432098765432,90.24444444444443,0)" xlink:href="#B"/></g><path fill="#333" d="M137 0h-34L2-248h35l83 218 83-218h36" id="U"/><g id="q"><use transform="matrix(0.0765432098765432,0,0,0.0765432098765432,0,0)" xlink:href="#U"/><use transform="matrix(0.0765432098765432,0,0,0.0765432098765432,16.839506172839503,0)" xlink:href="#J"/><use transform="matrix(0.0765432098765432,0,0,0.0765432098765432,32.148148148148145,0)" xlink:href="#B"/><use transform="matrix(0.0765432098765432,0,0,0.0765432098765432,45.92592592592592,0)" xlink:href="#J"/><use transform="matrix(0.0765432098765432,0,0,0.0765432098765432,61.23456790123456,0)" xlink:href="#K"/><use transform="matrix(0.0765432098765432,0,0,0.0765432098765432,76.5432098765432,0)" xlink:href="#u"/><use transform="matrix(0.0765432098765432,0,0,0.0765432098765432,91.85185185185183,0)" xlink:href="#x"/></g></defs></g></svg>