<svg xmlns="http://www.w3.org/2000/svg" xmlns:xlink="http://www.w3.org/1999/xlink" xmlns:lucid="lucid" width="1179" height="259"><g transform="translate(0 0)" lucid:page-tab-id="0_0"><path d="M148 40c17.67 0 32 17.9 32 40s-14.33 40-32 40H52c-17.67 0-32-17.9-32-40s14.33-40 32-40z" stroke="#6692e3" stroke-width="2" fill="#fff"/><use xlink:href="#a" transform="matrix(1,0,0,1,25,45) translate(28.049999999999997 38.4625)"/><use xlink:href="#b" transform="matrix(1,0,0,1,25,45) translate(73.05 38.4625)"/><path d="M320 20l80 60-80 60-80-60z" stroke="#6692e3" stroke-width="2" fill="#fff"/><use xlink:href="#c" transform="matrix(1,0,0,1,245,25) translate(25.054999999999996 48.775)"/><use xlink:href="#d" transform="matrix(1,0,0,1,245,25) translate(72.005 48.775)"/><use xlink:href="#e" transform="matrix(1,0,0,1,245,25) translate(85.95500000000001 48.775)"/><use xlink:href="#f" transform="matrix(1,0,0,1,245,25) translate(43.03 70.375)"/><use xlink:href="#g" transform="matrix(1,0,0,1,245,25) translate(58.03 70.375)"/><path d="M430.26 81h-27.6v-2h27.6zm39.44 0h-10.1v-2h10.1z" fill="#6692e3"/><path d="M402.7 81h-2.37l1.34-1-1.34-1h2.36zM484.96 80l-14.26 4.64v-9.28z" fill="#6692e3"/><path d="M488.2 80l-18.5 6V74zm-16.5 3.26L481.73 80l-10.03-3.26z" fill="#6692e3"/><use xlink:href="#h" transform="matrix(1,0,0,1,430.2569455144673,69.2) translate(0 14.4)"/><path d="M580 20l90 60-90 60-90-60z" stroke="#6692e3" stroke-width="2" fill="#fff"/><use xlink:href="#c" transform="matrix(1,0,0,1,495,25) translate(57.05499999999999 38.4625)"/><use xlink:href="#i" transform="matrix(1,0,0,1,495,25) translate(104.005 38.4625)"/><use xlink:href="#j" transform="matrix(1,0,0,1,495,25) translate(43.53 60.0625)"/><use xlink:href="#f" transform="matrix(1,0,0,1,495,25) translate(87.53 60.0625)"/><use xlink:href="#k" transform="matrix(1,0,0,1,495,25) translate(102.53 60.0625)"/><use xlink:href="#l" transform="matrix(1,0,0,1,495,25) translate(52.529999999999994 81.66250000000001)"/><path d="M684 81h-11.2v-2H684zm35.7 0h-6.36v-2h6.36z" fill="#6692e3"/><path d="M672.83 81h-2.53l1.5-1-1.5-1h2.53zM734.96 80l-14.26 4.64v-9.28z" fill="#6692e3"/><path d="M738.2 80l-18.5 6V74zm-16.5 3.26L731.73 80l-10.03-3.26z" fill="#6692e3"/><use xlink:href="#h" transform="matrix(1,0,0,1,683.9916666666667,69.2) translate(0 14.4)"/><path d="M830 20l90 60-90 60-90-60z" stroke="#6692e3" stroke-width="2" fill="#fff"/><use xlink:href="#c" transform="matrix(1,0,0,1,745,25) translate(57.05499999999999 38.4625)"/><use xlink:href="#i" transform="matrix(1,0,0,1,745,25) translate(104.005 38.4625)"/><use xlink:href="#j" transform="matrix(1,0,0,1,745,25) translate(32.53 60.0625)"/><use xlink:href="#f" transform="matrix(1,0,0,1,745,25) translate(76.53 60.0625)"/><use xlink:href="#m" transform="matrix(1,0,0,1,745,25) translate(91.53 60.0625)"/><use xlink:href="#n" transform="matrix(1,0,0,1,745,25) translate(55.505 81.66250000000001)"/><path d="M932 81h-9.2v-2h9.2zm48.5 0h-19.16v-2h19.16z" fill="#6692e3"/><path d="M922.83 81h-2.53l1.5-1-1.5-1h2.53zM995.76 80l-14.26 4.64v-9.28z" fill="#6692e3"/><path d="M999 80l-18.5 6V74zm-16.5 3.26L992.53 80l-10.03-3.26z" fill="#6692e3"/><use xlink:href="#h" transform="matrix(1,0,0,1,931.9916666666667,69.2) translate(0 14.4)"/><path d="M1128 40c17.67 0 32 17.9 32 40s-14.33 40-32 40h-96c-17.67 0-32-17.9-32-40s14.33-40 32-40z" stroke="#6692e3" stroke-width="2" fill="#fff"/><use xlink:href="#o" transform="matrix(1,0,0,1,1005,45) translate(26.825000000000003 38.4625)"/><use xlink:href="#p" transform="matrix(1,0,0,1,1005,45) translate(54.225 38.4625)"/><use xlink:href="#q" transform="matrix(1,0,0,1,1005,45) translate(79.225 38.4625)"/><path d="M182 80h37.83" stroke="#6692e3" stroke-width="2" fill="none"/><path d="M182.03 81h-1.1l.07-1-.03-1h1.06z" fill="#6692e3"/><path d="M235.1 80l-14.27 4.64v-9.28z" stroke="#6692e3" stroke-width="2" fill="#6692e3"/><path d="M321 199h552.63v2H319v-58.75h2zm659.5 0v2h-83.92v-2z" fill="#6692e3"/><path d="M321 142.28h-2v-1.78l1 .75 1-.75zM995.76 200l-14.26 4.64v-9.28z" fill="#6692e3"/><path d="M999 200l-18.5 6v-12zm-16.5 3.26l10.03-3.26-10.03-3.26z" fill="#6692e3"/><path d="M1128 160c17.67 0 32 17.9 32 40s-14.33 40-32 40h-96c-17.67 0-32-17.9-32-40s14.33-40 32-40z" stroke="#6692e3" stroke-width="2" fill="#fff"/><g><use xlink:href="#r" transform="matrix(1,0,0,1,1005,165) translate(24.049999999999997 38.4625)"/><use xlink:href="#p" transform="matrix(1,0,0,1,1005,165) translate(57 38.4625)"/><use xlink:href="#q" transform="matrix(1,0,0,1,1005,165) translate(82 38.4625)"/></g><path d="M581 199h292.63v2H579v-58.8h2zm399.5 0v2h-83.92v-2z" fill="#6692e3"/><path d="M581 142.23h-2v-1.7l1 .67 1-.66zM995.76 200l-14.26 4.64v-9.28z" fill="#6692e3"/><path d="M999 200l-18.5 6v-12zm-16.5 3.26l10.03-3.26-10.03-3.26zM831 199h42.63v2H829v-58.8h2zm149.5 0v2h-83.92v-2z" fill="#6692e3"/><path d="M831 142.23h-2v-1.7l1 .67 1-.66zM995.76 200l-14.26 4.64v-9.28z" fill="#6692e3"/><path d="M999 200l-18.5 6v-12zm-16.5 3.26l10.03-3.26-10.03-3.26z" fill="#6692e3"/><g><use xlink:href="#s" transform="matrix(1,0,0,1,873.6256141033135,189.2) translate(0 14.4)"/></g><defs><path d="M33 0v-248h34V0H33" id="t"/><path d="M117-194c89-4 53 116 60 194h-32v-121c0-31-8-49-39-48C34-167 62-67 57 0H25l-1-190h30c1 10-1 24 2 32 11-22 29-35 61-36" id="u"/><path d="M115-194c55 1 70 41 70 98S169 2 115 4C84 4 66-9 55-30l1 105H24l-1-265h31l2 30c10-21 28-34 59-34zm-8 174c40 0 45-34 45-75s-6-73-45-74c-42 0-51 32-51 76 0 43 10 73 51 73" id="v"/><path d="M84 4C-5 8 30-112 23-190h32v120c0 31 7 50 39 49 72-2 45-101 50-169h31l1 190h-30c-1-10 1-25-2-33-11 22-28 36-60 37" id="w"/><path d="M59-47c-2 24 18 29 38 22v24C64 9 27 4 27-40v-127H5v-23h24l9-43h21v43h35v23H59v120" id="x"/><g id="a"><use transform="matrix(0.05,0,0,0.05,0,0)" xlink:href="#t"/><use transform="matrix(0.05,0,0,0.05,5,0)" xlink:href="#u"/><use transform="matrix(0.05,0,0,0.05,15,0)" xlink:href="#v"/><use transform="matrix(0.05,0,0,0.05,25,0)" xlink:href="#w"/><use transform="matrix(0.05,0,0,0.05,35,0)" xlink:href="#x"/></g><path d="M24-231v-30h32v30H24zM24 0v-190h32V0H24" id="y"/><path d="M210-169c-67 3-38 105-44 169h-31v-121c0-29-5-50-35-48C34-165 62-65 56 0H25l-1-190h30c1 10-1 24 2 32 10-44 99-50 107 0 11-21 27-35 58-36 85-2 47 119 55 194h-31v-121c0-29-5-49-35-48" id="z"/><path d="M141-36C126-15 110 5 73 4 37 3 15-17 15-53c-1-64 63-63 125-63 3-35-9-54-41-54-24 1-41 7-42 31l-33-3c5-37 33-52 76-52 45 0 72 20 72 64v82c-1 20 7 32 28 27v20c-31 9-61-2-59-35zM48-53c0 20 12 33 32 33 41-3 63-29 60-74-43 2-92-5-92 41" id="A"/><path d="M177-190C167-65 218 103 67 71c-23-6-38-20-44-43l32-5c15 47 100 32 89-28v-30C133-14 115 1 83 1 29 1 15-40 15-95c0-56 16-97 71-98 29-1 48 16 59 35 1-10 0-23 2-32h30zM94-22c36 0 50-32 50-73 0-42-14-75-50-75-39 0-46 34-46 75s6 73 46 73" id="B"/><path d="M100-194c63 0 86 42 84 106H49c0 40 14 67 53 68 26 1 43-12 49-29l28 8c-11 28-37 45-77 45C44 4 14-33 15-96c1-61 26-98 85-98zm52 81c6-60-76-77-97-28-3 7-6 17-6 28h103" id="C"/><g id="b"><use transform="matrix(0.05,0,0,0.05,0,0)" xlink:href="#y"/><use transform="matrix(0.05,0,0,0.05,3.95,0)" xlink:href="#z"/><use transform="matrix(0.05,0,0,0.05,18.900000000000002,0)" xlink:href="#A"/><use transform="matrix(0.05,0,0,0.05,28.900000000000002,0)" xlink:href="#B"/><use transform="matrix(0.05,0,0,0.05,38.900000000000006,0)" xlink:href="#C"/></g><path d="M30-248c118-7 216 8 213 122C240-48 200 0 122 0H30v-248zM63-27c89 8 146-16 146-99s-60-101-146-95v194" id="D"/><path d="M100-194c62-1 85 37 85 99 1 63-27 99-86 99S16-35 15-95c0-66 28-99 85-99zM99-20c44 1 53-31 53-75 0-43-8-75-51-75s-53 32-53 75 10 74 51 75" id="E"/><path d="M135-143c-3-34-86-38-87 0 15 53 115 12 119 90S17 21 10-45l28-5c4 36 97 45 98 0-10-56-113-15-118-90-4-57 82-63 122-42 12 7 21 19 24 35" id="F"/><g id="c"><use transform="matrix(0.05,0,0,0.05,0,0)" xlink:href="#D"/><use transform="matrix(0.05,0,0,0.05,12.950000000000001,0)" xlink:href="#E"/><use transform="matrix(0.05,0,0,0.05,22.950000000000003,0)" xlink:href="#C"/><use transform="matrix(0.05,0,0,0.05,32.95,0)" xlink:href="#F"/></g><g id="d"><use transform="matrix(0.05,0,0,0.05,0,0)" xlink:href="#y"/><use transform="matrix(0.05,0,0,0.05,3.95,0)" xlink:href="#x"/></g><path d="M106-169C34-169 62-67 57 0H25v-261h32l-1 103c12-21 28-36 61-36 89 0 53 116 60 194h-32v-121c2-32-8-49-39-48" id="G"/><path d="M108 0H70L1-190h34L89-25l56-165h34" id="H"/><g id="e"><use transform="matrix(0.05,0,0,0.05,0,0)" xlink:href="#G"/><use transform="matrix(0.05,0,0,0.05,10,0)" xlink:href="#A"/><use transform="matrix(0.05,0,0,0.05,20,0)" xlink:href="#H"/><use transform="matrix(0.05,0,0,0.05,29,0)" xlink:href="#C"/></g><use transform="matrix(0.05,0,0,0.05,0,0)" xlink:href="#A" id="f"/><path d="M103-251c84 0 111 97 45 133-19 10-37 24-39 52H78c0-63 77-55 77-114 0-30-21-42-52-43-32 0-53 17-56 46l-32-2c7-45 34-72 88-72zM77 0v-35h34V0H77" id="I"/><g id="g"><use transform="matrix(0.05,0,0,0.05,0,0)" xlink:href="#F"/><use transform="matrix(0.05,0,0,0.05,9,0)" xlink:href="#x"/><use transform="matrix(0.05,0,0,0.05,14,0)" xlink:href="#C"/><use transform="matrix(0.05,0,0,0.05,24,0)" xlink:href="#z"/><use transform="matrix(0.05,0,0,0.05,38.95,0)" xlink:href="#I"/></g><path d="M137-103V0h-34v-103L8-248h37l75 118 75-118h37" id="J"/><g id="h"><use transform="matrix(0.05,0,0,0.05,0,0)" xlink:href="#J"/><use transform="matrix(0.05,0,0,0.05,10.35,0)" xlink:href="#C"/><use transform="matrix(0.05,0,0,0.05,20.35,0)" xlink:href="#F"/></g><g id="i"><use transform="matrix(0.05,0,0,0.05,0,0)" xlink:href="#y"/><use transform="matrix(0.05,0,0,0.05,3.95,0)" xlink:href="#x"/></g><g id="j"><use transform="matrix(0.05,0,0,0.05,0,0)" xlink:href="#G"/><use transform="matrix(0.05,0,0,0.05,10,0)" xlink:href="#A"/><use transform="matrix(0.05,0,0,0.05,20,0)" xlink:href="#H"/><use transform="matrix(0.05,0,0,0.05,29,0)" xlink:href="#C"/></g><path d="M101-234c-31-9-42 10-38 44h38v23H63V0H32v-167H5v-23h27c-7-52 17-82 69-68v24" id="K"/><path d="M24 0v-261h32V0H24" id="L"/><g id="k"><use transform="matrix(0.05,0,0,0.05,0,0)" xlink:href="#K"/><use transform="matrix(0.05,0,0,0.05,5,0)" xlink:href="#L"/><use transform="matrix(0.05,0,0,0.05,8.95,0)" xlink:href="#A"/><use transform="matrix(0.05,0,0,0.05,18.95,0)" xlink:href="#x"/></g><path d="M115-194c53 0 69 39 70 98 0 66-23 100-70 100C84 3 66-7 56-30L54 0H23l1-261h32v101c10-23 28-34 59-34zm-8 174c40 0 45-34 45-75 0-40-5-75-45-74-42 0-51 32-51 76 0 43 10 73 51 73" id="M"/><g id="l"><use transform="matrix(0.05,0,0,0.05,0,0)" xlink:href="#M"/><use transform="matrix(0.05,0,0,0.05,10,0)" xlink:href="#E"/><use transform="matrix(0.05,0,0,0.05,20,0)" xlink:href="#x"/><use transform="matrix(0.05,0,0,0.05,25,0)" xlink:href="#x"/><use transform="matrix(0.05,0,0,0.05,30,0)" xlink:href="#E"/><use transform="matrix(0.05,0,0,0.05,40,0)" xlink:href="#z"/><use transform="matrix(0.05,0,0,0.05,54.95,0)" xlink:href="#I"/></g><path d="M114-163C36-179 61-72 57 0H25l-1-190h30c1 12-1 29 2 39 6-27 23-49 58-41v29" id="N"/><path d="M85-194c31 0 48 13 60 33l-1-100h32l1 261h-30c-2-10 0-23-3-31C134-8 116 4 85 4 32 4 16-35 15-94c0-66 23-100 70-100zm9 24c-40 0-46 34-46 75 0 40 6 74 45 74 42 0 51-32 51-76 0-42-9-74-50-73" id="O"/><g id="m"><use transform="matrix(0.05,0,0,0.05,0,0)" xlink:href="#N"/><use transform="matrix(0.05,0,0,0.05,5.95,0)" xlink:href="#E"/><use transform="matrix(0.05,0,0,0.05,15.949999999999998,0)" xlink:href="#w"/><use transform="matrix(0.05,0,0,0.05,25.950000000000003,0)" xlink:href="#u"/><use transform="matrix(0.05,0,0,0.05,35.95,0)" xlink:href="#O"/></g><g id="n"><use transform="matrix(0.05,0,0,0.05,0,0)" xlink:href="#F"/><use transform="matrix(0.05,0,0,0.05,9,0)" xlink:href="#G"/><use transform="matrix(0.05,0,0,0.05,19,0)" xlink:href="#A"/><use transform="matrix(0.05,0,0,0.05,29,0)" xlink:href="#v"/><use transform="matrix(0.05,0,0,0.05,39,0)" xlink:href="#C"/><use transform="matrix(0.05,0,0,0.05,49,0)" xlink:href="#I"/></g><path d="M47-170H22l-4-78h33" id="P"/><g id="o"><use transform="matrix(0.05,0,0,0.05,0,0)" xlink:href="#t"/><use transform="matrix(0.05,0,0,0.05,5,0)" xlink:href="#x"/><use transform="matrix(0.05,0,0,0.05,10,0)" xlink:href="#P"/><use transform="matrix(0.05,0,0,0.05,13.4,0)" xlink:href="#F"/></g><g id="p"><use transform="matrix(0.05,0,0,0.05,0,0)" xlink:href="#A"/><use transform="matrix(0.05,0,0,0.05,10,0)" xlink:href="#u"/></g><g id="q"><use transform="matrix(0.05,0,0,0.05,0,0)" xlink:href="#A"/><use transform="matrix(0.05,0,0,0.05,10,0)" xlink:href="#v"/><use transform="matrix(0.05,0,0,0.05,20,0)" xlink:href="#v"/><use transform="matrix(0.05,0,0,0.05,30,0)" xlink:href="#L"/><use transform="matrix(0.05,0,0,0.05,33.95,0)" xlink:href="#C"/></g><path d="M190 0L58-211 59 0H30v-248h39L202-35l-2-213h31V0h-41" id="Q"/><g id="r"><use transform="matrix(0.05,0,0,0.05,0,0)" xlink:href="#Q"/><use transform="matrix(0.05,0,0,0.05,12.950000000000001,0)" xlink:href="#E"/><use transform="matrix(0.05,0,0,0.05,22.950000000000003,0)" xlink:href="#x"/></g><g id="s"><use transform="matrix(0.05,0,0,0.05,0,0)" xlink:href="#Q"/><use transform="matrix(0.05,0,0,0.05,12.950000000000001,0)" xlink:href="#E"/></g></defs></g></svg>