<svg xmlns="http://www.w3.org/2000/svg" xmlns:xlink="http://www.w3.org/1999/xlink" xmlns:lucid="lucid" width="1027" height="399"><g transform="translate(-75 -42)" lucid:page-tab-id="0_0"><path d="M100 100h40v40h-40zM140 100h40v40h-40zM180 100h40v40h-40zM220 100h40v40h-40zM260 100h40v40h-40zM100 140h40v40h-40zM140 140h40v40h-40zM180 140h40v40h-40zM220 140h40v40h-40zM260 140h40v40h-40zM100 180h40v40h-40zM140 180h40v40h-40zM180 180h40v40h-40zM220 180h40v40h-40zM260 180h40v40h-40zM100 220h40v40h-40zM140 220h40v40h-40zM180 220h40v40h-40zM220 220h40v40h-40zM260 220h40v40h-40zM100 260h40v40h-40zM140 260h40v40h-40zM180 260h40v40h-40zM220 260h40v40h-40zM260 260h40v40h-40z" fill="#fff"/><path d="M100 100v40M140 100v40M180 100v40M220 100v40M260 100v40M300 100v40M100 140v40M140 140v40M180 140v40M220 140v40M260 140v40M300 140v40M100 180v40M140 180v40M180 180v40M220 180v40M260 180v40M300 180v40M100 220v40M140 220v40M180 220v40M220 220v40M260 220v40M300 220v40M100 260v40M140 260v40M180 260v40M220 260v40M260 260v40M300 260v40M100 100h40M140 100h40M180 100h40M220 100h40M260 100h40M100 140h40M140 140h40M180 140h40M220 140h40M260 140h40M100 180h40M140 180h40M180 180h40M220 180h40M260 180h40M100 220h40M140 220h40M180 220h40M220 220h40M260 220h40M100 260h40M100 300h40M140 260h40M140 300h40M180 260h40M180 300h40M220 260h40M220 300h40M260 260h40M260 300h40" stroke="#000" stroke-width="2" fill="none"/><use xlink:href="#a" transform="matrix(1,0,0,1,105,105) translate(10 18.6)"/><use xlink:href="#b" transform="matrix(1,0,0,1,145,105) translate(10 18.6)"/><use xlink:href="#b" transform="matrix(1,0,0,1,185,105) translate(10 18.6)"/><use xlink:href="#b" transform="matrix(1,0,0,1,225,105) translate(10 18.6)"/><use xlink:href="#a" transform="matrix(1,0,0,1,265,105) translate(10 18.6)"/><use xlink:href="#b" transform="matrix(1,0,0,1,105,145) translate(10 18.6)"/><use xlink:href="#a" transform="matrix(1,0,0,1,145,145) translate(10 18.6)"/><use xlink:href="#a" transform="matrix(1,0,0,1,185,145) translate(10 18.6)"/><use xlink:href="#a" transform="matrix(1,0,0,1,225,145) translate(10 18.6)"/><use xlink:href="#b" transform="matrix(1,0,0,1,265,145) translate(10 18.6)"/><use xlink:href="#b" transform="matrix(1,0,0,1,105,185) translate(10 18.6)"/><use xlink:href="#a" transform="matrix(1,0,0,1,145,185) translate(10 18.6)"/><use xlink:href="#a" transform="matrix(1,0,0,1,185,185) translate(10 18.6)"/><use xlink:href="#a" transform="matrix(1,0,0,1,225,185) translate(10 18.6)"/><use xlink:href="#b" transform="matrix(1,0,0,1,265,185) translate(10 18.6)"/><use xlink:href="#b" transform="matrix(1,0,0,1,105,225) translate(10 18.6)"/><use xlink:href="#a" transform="matrix(1,0,0,1,145,225) translate(10 18.6)"/><use xlink:href="#a" transform="matrix(1,0,0,1,185,225) translate(10 18.6)"/><use xlink:href="#a" transform="matrix(1,0,0,1,225,225) translate(10 18.6)"/><use xlink:href="#b" transform="matrix(1,0,0,1,265,225) translate(10 18.6)"/><use xlink:href="#a" transform="matrix(1,0,0,1,105,265) translate(10 18.6)"/><use xlink:href="#b" transform="matrix(1,0,0,1,145,265) translate(10 18.6)"/><use xlink:href="#b" transform="matrix(1,0,0,1,185,265) translate(10 18.6)"/><use xlink:href="#b" transform="matrix(1,0,0,1,225,265) translate(10 18.6)"/><use xlink:href="#a" transform="matrix(1,0,0,1,265,265) translate(10 18.6)"/><path d="M370 180h124v-20l36 40-36 40v-20H370z" stroke="#000" stroke-width="2" fill="#fff"/><path d="M600 140h40v40h-40zM640 140h40v40h-40zM680 140h40v40h-40zM600 180h40v40h-40zM640 180h40v40h-40zM680 180h40v40h-40zM600 220h40v40h-40zM640 220h40v40h-40zM680 220h40v40h-40z" fill="#fff"/><path d="M600 140v40M640 140v40M680 140v40M720 140v40M600 180v40M640 180v40M680 180v40M720 180v40M600 220v40M640 220v40M680 220v40M720 220v40M600 140h40M640 140h40M680 140h40M600 180h40M640 180h40M680 180h40M600 220h40M600 260h40M640 220h40M640 260h40M680 220h40M680 260h40" stroke="#000" stroke-width="2" fill="none"/><use xlink:href="#a" transform="matrix(1,0,0,1,605,145) translate(10 18.6)"/><use xlink:href="#b" transform="matrix(1,0,0,1,645,145) translate(10 18.6)"/><use xlink:href="#a" transform="matrix(1,0,0,1,685,145) translate(10 18.6)"/><use xlink:href="#b" transform="matrix(1,0,0,1,605,185) translate(10 18.6)"/><use xlink:href="#a" transform="matrix(1,0,0,1,645,185) translate(10 18.6)"/><use xlink:href="#b" transform="matrix(1,0,0,1,685,185) translate(10 18.6)"/><use xlink:href="#a" transform="matrix(1,0,0,1,605,225) translate(10 18.6)"/><use xlink:href="#b" transform="matrix(1,0,0,1,645,225) translate(10 18.6)"/><use xlink:href="#a" transform="matrix(1,0,0,1,685,225) translate(10 18.6)"/><path d="M80 40h240v60H80z" stroke="#000" stroke-opacity="0" stroke-width="2" fill="#fff" fill-opacity="0"/><use xlink:href="#c" transform="matrix(1,0,0,1,85,45) translate(90.06172839506173 30.455555555555552)"/><path d="M330 98.07h240v63.86H330z" stroke="#000" stroke-opacity="0" stroke-width="2" fill="#fff" fill-opacity="0"/><use xlink:href="#d" transform="matrix(1,0,0,1,335,103.06666666666666) translate(55.86512345679013 17.955555555555552)"/><use xlink:href="#e" transform="matrix(1,0,0,1,335,103.06666666666666) translate(55.83395061728397 44.888888888888886)"/><use xlink:href="#f" transform="matrix(1,0,0,1,335,103.06666666666666) translate(99.47592592592594 44.888888888888886)"/><path d="M540 80h240v60H540z" stroke="#000" stroke-opacity="0" stroke-width="2" fill="#fff" fill-opacity="0"/><use xlink:href="#g" transform="matrix(1,0,0,1,545,85) translate(48.38364197530865 30.455555555555552)"/><use xlink:href="#h" transform="matrix(1,0,0,1,545,85) translate(125.56759259259259 30.455555555555552)"/><path d="M800 180h124v-20l36 40-36 40v-20H800z" stroke="#000" stroke-width="2" fill="#fff"/><path d="M760 110h240v60H760z" stroke="#000" stroke-opacity="0" stroke-width="2" fill="#fff" fill-opacity="0"/><use xlink:href="#i" transform="matrix(1,0,0,1,765,115) translate(49.06944444444446 30.455555555555552)"/><path d="M920 170h240v60H920z" stroke="#000" stroke-opacity="0" stroke-width="2" fill="#fff" fill-opacity="0"/><use xlink:href="#j" transform="matrix(1,0,0,1,925,175) translate(77.69166666666668 30.886111111111106)"/><path d="M379.3 379.3l-46.22-46.22M379.27 379.27l.73.73" stroke="#000" stroke-width="2" fill="none"/><path d="M322.3 322.3l13.35 6.8-6.55 6.55z" stroke="#000" stroke-width="2"/><path d="M799.3 339.3l-46.22-46.22M799.27 339.27l.73.73" stroke="#000" stroke-width="2" fill="none"/><path d="M742.3 282.3l13.35 6.8-6.55 6.55z" stroke="#000" stroke-width="2"/><path d="M740 340h240v60H740z" stroke="#000" stroke-opacity="0" stroke-width="2" fill="#fff" fill-opacity="0"/><use xlink:href="#k" transform="matrix(1,0,0,1,745,345) translate(10.477469135802494 30.455555555555552)"/><use xlink:href="#l" transform="matrix(1,0,0,1,745,345) translate(77.68611111111112 30.455555555555552)"/><path d="M320 380h240v60H320z" stroke="#000" stroke-opacity="0" stroke-width="2" fill="#fff" fill-opacity="0"/><g><use xlink:href="#m" transform="matrix(1,0,0,1,325,385) translate(8.014814814814855 30.455555555555552)"/><use xlink:href="#l" transform="matrix(1,0,0,1,325,385) translate(80.14876543209878 30.455555555555552)"/></g><path d="M160 460h240v60H160z" stroke="#000" stroke-opacity="0" stroke-width="2" fill="#fff" fill-opacity="0"/><defs><path d="M101-251c68 0 85 55 85 127S166 4 100 4C33 4 14-52 14-124c0-73 17-127 87-127zm-1 229c47 0 54-49 54-102s-4-102-53-102c-51 0-55 48-55 102 0 53 5 102 54 102" id="n"/><use transform="matrix(0.05,0,0,0.05,0,0)" xlink:href="#n" id="a"/><path d="M27 0v-27h64v-190l-56 39v-29l58-41h29v221h61V0H27" id="o"/><use transform="matrix(0.05,0,0,0.05,0,0)" xlink:href="#o" id="b"/><path d="M33 0v-248h34V0H33" id="p"/><path d="M117-194c89-4 53 116 60 194h-32v-121c0-31-8-49-39-48C34-167 62-67 57 0H25l-1-190h30c1 10-1 24 2 32 11-22 29-35 61-36" id="q"/><path d="M115-194c55 1 70 41 70 98S169 2 115 4C84 4 66-9 55-30l1 105H24l-1-265h31l2 30c10-21 28-34 59-34zm-8 174c40 0 45-34 45-75s-6-73-45-74c-42 0-51 32-51 76 0 43 10 73 51 73" id="r"/><path d="M84 4C-5 8 30-112 23-190h32v120c0 31 7 50 39 49 72-2 45-101 50-169h31l1 190h-30c-1-10 1-25-2-33-11 22-28 36-60 37" id="s"/><path d="M59-47c-2 24 18 29 38 22v24C64 9 27 4 27-40v-127H5v-23h24l9-43h21v43h35v23H59v120" id="t"/><g id="c"><use transform="matrix(0.06234567901234567,0,0,0.06234567901234567,0,0)" xlink:href="#p"/><use transform="matrix(0.06234567901234567,0,0,0.06234567901234567,6.234567901234566,0)" xlink:href="#q"/><use transform="matrix(0.06234567901234567,0,0,0.06234567901234567,18.7037037037037,0)" xlink:href="#r"/><use transform="matrix(0.06234567901234567,0,0,0.06234567901234567,31.17283950617283,0)" xlink:href="#s"/><use transform="matrix(0.06234567901234567,0,0,0.06234567901234567,43.64197530864196,0)" xlink:href="#t"/></g><path d="M212-179c-10-28-35-45-73-45-59 0-87 40-87 99 0 60 29 101 89 101 43 0 62-24 78-52l27 14C228-24 195 4 139 4 59 4 22-46 18-125c-6-104 99-153 187-111 19 9 31 26 39 46" id="u"/><path d="M100-194c62-1 85 37 85 99 1 63-27 99-86 99S16-35 15-95c0-66 28-99 85-99zM99-20c44 1 53-31 53-75 0-43-8-75-51-75s-53 32-53 75 10 74 51 75" id="v"/><path d="M108 0H70L1-190h34L89-25l56-165h34" id="w"/><path d="M24 0v-261h32V0H24" id="x"/><path d="M24-231v-30h32v30H24zM24 0v-190h32V0H24" id="y"/><g id="d"><use transform="matrix(0.06234567901234567,0,0,0.06234567901234567,0,0)" xlink:href="#u"/><use transform="matrix(0.06234567901234567,0,0,0.06234567901234567,16.147530864197527,0)" xlink:href="#v"/><use transform="matrix(0.06234567901234567,0,0,0.06234567901234567,28.61666666666666,0)" xlink:href="#q"/><use transform="matrix(0.06234567901234567,0,0,0.06234567901234567,41.08580246913579,0)" xlink:href="#w"/><use transform="matrix(0.06234567901234567,0,0,0.06234567901234567,52.308024691358014,0)" xlink:href="#v"/><use transform="matrix(0.06234567901234567,0,0,0.06234567901234567,64.77716049382715,0)" xlink:href="#x"/><use transform="matrix(0.06234567901234567,0,0,0.06234567901234567,69.70246913580246,0)" xlink:href="#s"/><use transform="matrix(0.06234567901234567,0,0,0.06234567901234567,82.1716049382716,0)" xlink:href="#t"/><use transform="matrix(0.06234567901234567,0,0,0.06234567901234567,88.40617283950617,0)" xlink:href="#y"/><use transform="matrix(0.06234567901234567,0,0,0.06234567901234567,93.33148148148148,0)" xlink:href="#v"/><use transform="matrix(0.06234567901234567,0,0,0.06234567901234567,105.8006172839506,0)" xlink:href="#q"/></g><path d="M141-36C126-15 110 5 73 4 37 3 15-17 15-53c-1-64 63-63 125-63 3-35-9-54-41-54-24 1-41 7-42 31l-33-3c5-37 33-52 76-52 45 0 72 20 72 64v82c-1 20 7 32 28 27v20c-31 9-61-2-59-35zM48-53c0 20 12 33 32 33 41-3 63-29 60-74-43 2-92-5-92 41" id="z"/><path d="M85-194c31 0 48 13 60 33l-1-100h32l1 261h-30c-2-10 0-23-3-31C134-8 116 4 85 4 32 4 16-35 15-94c0-66 23-100 70-100zm9 24c-40 0-46 34-46 75 0 40 6 74 45 74 42 0 51-32 51-76 0-42-9-74-50-73" id="A"/><g id="e"><use transform="matrix(0.06234567901234567,0,0,0.06234567901234567,0,0)" xlink:href="#z"/><use transform="matrix(0.06234567901234567,0,0,0.06234567901234567,12.469135802469133,0)" xlink:href="#q"/><use transform="matrix(0.06234567901234567,0,0,0.06234567901234567,24.938271604938265,0)" xlink:href="#A"/></g><path d="M30-248c87 1 191-15 191 75 0 78-77 80-158 76V0H30v-248zm33 125c57 0 124 11 124-50 0-59-68-47-124-48v98" id="B"/><path d="M177-190C167-65 218 103 67 71c-23-6-38-20-44-43l32-5c15 47 100 32 89-28v-30C133-14 115 1 83 1 29 1 15-40 15-95c0-56 16-97 71-98 29-1 48 16 59 35 1-10 0-23 2-32h30zM94-22c36 0 50-32 50-73 0-42-14-75-50-75-39 0-46 34-46 75s6 73 46 73" id="C"/><g id="f"><use transform="matrix(0.06234567901234567,0,0,0.06234567901234567,0,0)" xlink:href="#B"/><use transform="matrix(0.06234567901234567,0,0,0.06234567901234567,14.96296296296296,0)" xlink:href="#v"/><use transform="matrix(0.06234567901234567,0,0,0.06234567901234567,27.432098765432094,0)" xlink:href="#v"/><use transform="matrix(0.06234567901234567,0,0,0.06234567901234567,39.90123456790123,0)" xlink:href="#x"/><use transform="matrix(0.06234567901234567,0,0,0.06234567901234567,44.82654320987653,0)" xlink:href="#y"/><use transform="matrix(0.06234567901234567,0,0,0.06234567901234567,49.75185185185184,0)" xlink:href="#q"/><use transform="matrix(0.06234567901234567,0,0,0.06234567901234567,62.22098765432097,0)" xlink:href="#C"/></g><path d="M197 0v-115H63V0H30v-248h33v105h134v-105h34V0h-34" id="D"/><path d="M100-194c63 0 86 42 84 106H49c0 40 14 67 53 68 26 1 43-12 49-29l28 8c-11 28-37 45-77 45C44 4 14-33 15-96c1-61 26-98 85-98zm52 81c6-60-76-77-97-28-3 7-6 17-6 28h103" id="E"/><g id="g"><use transform="matrix(0.06234567901234567,0,0,0.06234567901234567,0,0)" xlink:href="#D"/><use transform="matrix(0.06234567901234567,0,0,0.06234567901234567,16.147530864197527,0)" xlink:href="#y"/><use transform="matrix(0.06234567901234567,0,0,0.06234567901234567,21.072839506172834,0)" xlink:href="#A"/><use transform="matrix(0.06234567901234567,0,0,0.06234567901234567,33.541975308641966,0)" xlink:href="#A"/><use transform="matrix(0.06234567901234567,0,0,0.06234567901234567,46.0111111111111,0)" xlink:href="#E"/><use transform="matrix(0.06234567901234567,0,0,0.06234567901234567,58.48024691358023,0)" xlink:href="#q"/></g><path d="M30 0v-248h33v221h125V0H30" id="F"/><path d="M179-190L93 31C79 59 56 82 12 73V49c39 6 53-20 64-50L1-190h34L92-34l54-156h33" id="G"/><path d="M114-163C36-179 61-72 57 0H25l-1-190h30c1 12-1 29 2 39 6-27 23-49 58-41v29" id="H"/><g id="h"><use transform="matrix(0.06234567901234567,0,0,0.06234567901234567,0,0)" xlink:href="#F"/><use transform="matrix(0.06234567901234567,0,0,0.06234567901234567,12.469135802469133,0)" xlink:href="#z"/><use transform="matrix(0.06234567901234567,0,0,0.06234567901234567,24.938271604938265,0)" xlink:href="#G"/><use transform="matrix(0.06234567901234567,0,0,0.06234567901234567,36.16049382716049,0)" xlink:href="#E"/><use transform="matrix(0.06234567901234567,0,0,0.06234567901234567,48.62962962962962,0)" xlink:href="#H"/></g><path d="M135-143c-3-34-86-38-87 0 15 53 115 12 119 90S17 21 10-45l28-5c4 36 97 45 98 0-10-56-113-15-118-90-4-57 82-63 122-42 12 7 21 19 24 35" id="I"/><path d="M101-234c-31-9-42 10-38 44h38v23H63V0H32v-167H5v-23h27c-7-52 17-82 69-68v24" id="J"/><path d="M96-169c-40 0-48 33-48 73s9 75 48 75c24 0 41-14 43-38l32 2c-6 37-31 61-74 61-59 0-76-41-82-99-10-93 101-131 147-64 4 7 5 14 7 22l-32 3c-4-21-16-35-41-35" id="K"/><g id="i"><use transform="matrix(0.06234567901234567,0,0,0.06234567901234567,0,0)" xlink:href="#u"/><use transform="matrix(0.06234567901234567,0,0,0.06234567901234567,16.147530864197527,0)" xlink:href="#x"/><use transform="matrix(0.06234567901234567,0,0,0.06234567901234567,21.072839506172834,0)" xlink:href="#z"/><use transform="matrix(0.06234567901234567,0,0,0.06234567901234567,33.541975308641966,0)" xlink:href="#I"/><use transform="matrix(0.06234567901234567,0,0,0.06234567901234567,44.76419753086419,0)" xlink:href="#I"/><use transform="matrix(0.06234567901234567,0,0,0.06234567901234567,55.98641975308641,0)" xlink:href="#y"/><use transform="matrix(0.06234567901234567,0,0,0.06234567901234567,60.911728395061715,0)" xlink:href="#J"/><use transform="matrix(0.06234567901234567,0,0,0.06234567901234567,67.14629629629628,0)" xlink:href="#y"/><use transform="matrix(0.06234567901234567,0,0,0.06234567901234567,72.07160493827159,0)" xlink:href="#K"/><use transform="matrix(0.06234567901234567,0,0,0.06234567901234567,83.2938271604938,0)" xlink:href="#z"/><use transform="matrix(0.06234567901234567,0,0,0.06234567901234567,95.76296296296294,0)" xlink:href="#t"/><use transform="matrix(0.06234567901234567,0,0,0.06234567901234567,101.99753086419751,0)" xlink:href="#y"/><use transform="matrix(0.06234567901234567,0,0,0.06234567901234567,106.92283950617282,0)" xlink:href="#v"/><use transform="matrix(0.06234567901234567,0,0,0.06234567901234567,119.39197530864195,0)" xlink:href="#q"/></g><path d="M67-125c0 53 21 87 73 88 37 1 54-22 65-47l45 17C233-25 199 4 140 4 58 4 20-42 15-125 8-235 124-281 211-232c18 10 29 29 36 50l-46 12c-8-25-30-41-62-41-52 0-71 34-72 86" id="L"/><path d="M25-224v-37h50v37H25zM25 0v-190h50V0H25" id="M"/><path d="M135-150c-39-12-60 13-60 57V0H25l-1-190h47c2 13-1 29 3 40 6-28 27-53 61-41v41" id="N"/><path d="M190-63c-7 42-38 67-86 67-59 0-84-38-90-98-12-110 154-137 174-36l-49 2c-2-19-15-32-35-32-30 0-35 28-38 64-6 74 65 87 74 30" id="O"/><path d="M25 0v-261h50V0H25" id="P"/><path d="M185-48c-13 30-37 53-82 52C43 2 14-33 14-96s30-98 90-98c62 0 83 45 84 108H66c0 31 8 55 39 56 18 0 30-7 34-22zm-45-69c5-46-57-63-70-21-2 6-4 13-4 21h74" id="Q"/><g id="j"><use transform="matrix(0.07469135802469135,0,0,0.07469135802469135,0,0)" xlink:href="#L"/><use transform="matrix(0.07469135802469135,0,0,0.07469135802469135,19.34506172839506,0)" xlink:href="#M"/><use transform="matrix(0.07469135802469135,0,0,0.07469135802469135,26.81419753086419,0)" xlink:href="#N"/><use transform="matrix(0.07469135802469135,0,0,0.07469135802469135,37.270987654320976,0)" xlink:href="#O"/><use transform="matrix(0.07469135802469135,0,0,0.07469135802469135,52.20925925925924,0)" xlink:href="#P"/><use transform="matrix(0.07469135802469135,0,0,0.07469135802469135,59.678395061728374,0)" xlink:href="#Q"/></g><path d="M206 0h-36l-40-164L89 0H53L-1-190h32L70-26l43-164h34l41 164 42-164h31" id="R"/><g id="k"><use transform="matrix(0.06234567901234567,0,0,0.06234567901234567,0,0)" xlink:href="#F"/><use transform="matrix(0.06234567901234567,0,0,0.06234567901234567,12.469135802469133,0)" xlink:href="#v"/><use transform="matrix(0.06234567901234567,0,0,0.06234567901234567,24.938271604938265,0)" xlink:href="#R"/><use transform="matrix(0.06234567901234567,0,0,0.06234567901234567,41.08580246913579,0)" xlink:href="#E"/><use transform="matrix(0.06234567901234567,0,0,0.06234567901234567,53.554938271604925,0)" xlink:href="#H"/></g><path d="M210-169c-67 3-38 105-44 169h-31v-121c0-29-5-50-35-48C34-165 62-65 56 0H25l-1-190h30c1 10-1 24 2 32 10-44 99-50 107 0 11-21 27-35 58-36 85-2 47 119 55 194h-31v-121c0-29-5-49-35-48" id="S"/><g id="l"><use transform="matrix(0.06234567901234567,0,0,0.06234567901234567,0,0)" xlink:href="#A"/><use transform="matrix(0.06234567901234567,0,0,0.06234567901234567,12.469135802469133,0)" xlink:href="#y"/><use transform="matrix(0.06234567901234567,0,0,0.06234567901234567,17.39444444444444,0)" xlink:href="#S"/><use transform="matrix(0.06234567901234567,0,0,0.06234567901234567,36.03580246913579,0)" xlink:href="#E"/><use transform="matrix(0.06234567901234567,0,0,0.06234567901234567,48.50493827160492,0)" xlink:href="#q"/><use transform="matrix(0.06234567901234567,0,0,0.06234567901234567,60.97407407407405,0)" xlink:href="#I"/><use transform="matrix(0.06234567901234567,0,0,0.06234567901234567,72.19629629629627,0)" xlink:href="#y"/><use transform="matrix(0.06234567901234567,0,0,0.06234567901234567,77.12160493827157,0)" xlink:href="#v"/><use transform="matrix(0.06234567901234567,0,0,0.06234567901234567,89.5907407407407,0)" xlink:href="#q"/><use transform="matrix(0.06234567901234567,0,0,0.06234567901234567,102.05987654320984,0)" xlink:href="#z"/><use transform="matrix(0.06234567901234567,0,0,0.06234567901234567,114.52901234567898,0)" xlink:href="#x"/><use transform="matrix(0.06234567901234567,0,0,0.06234567901234567,119.45432098765428,0)" xlink:href="#y"/><use transform="matrix(0.06234567901234567,0,0,0.06234567901234567,124.37962962962959,0)" xlink:href="#t"/><use transform="matrix(0.06234567901234567,0,0,0.06234567901234567,130.61419753086415,0)" xlink:href="#G"/></g><path d="M106-169C34-169 62-67 57 0H25v-261h32l-1 103c12-21 28-36 61-36 89 0 53 116 60 194h-32v-121c2-32-8-49-39-48" id="T"/><g id="m"><use transform="matrix(0.06234567901234567,0,0,0.06234567901234567,0,0)" xlink:href="#D"/><use transform="matrix(0.06234567901234567,0,0,0.06234567901234567,16.147530864197527,0)" xlink:href="#y"/><use transform="matrix(0.06234567901234567,0,0,0.06234567901234567,21.072839506172834,0)" xlink:href="#C"/><use transform="matrix(0.06234567901234567,0,0,0.06234567901234567,33.541975308641966,0)" xlink:href="#T"/><use transform="matrix(0.06234567901234567,0,0,0.06234567901234567,46.0111111111111,0)" xlink:href="#E"/><use transform="matrix(0.06234567901234567,0,0,0.06234567901234567,58.48024691358023,0)" xlink:href="#H"/></g></defs></g></svg>