<svg xmlns="http://www.w3.org/2000/svg" xmlns:xlink="http://www.w3.org/1999/xlink" xmlns:lucid="lucid" width="494" height="591"><g transform="translate(-181 -515)" lucid:page-tab-id="0_0"><path d="M280 1040c0 22.1-17.9 40-40 40s-40-17.9-40-40 17.9-40 40-40 40 17.9 40 40zM380 1040c0 22.1-17.9 40-40 40s-40-17.9-40-40 17.9-40 40-40 40 17.9 40 40zM480 1040c0 22.1-17.9 40-40 40s-40-17.9-40-40 17.9-40 40-40 40 17.9 40 40zM280 840c0 22.1-17.9 40-40 40s-40-17.9-40-40 17.9-40 40-40 40 17.9 40 40zM380 840c0 22.1-17.9 40-40 40s-40-17.9-40-40 17.9-40 40-40 40 17.9 40 40zM480 840c0 22.1-17.9 40-40 40s-40-17.9-40-40 17.9-40 40-40 40 17.9 40 40zM320 640c0 22.1-17.9 40-40 40s-40-17.9-40-40 17.9-40 40-40 40 17.9 40 40zM440 640c0 22.1-17.9 40-40 40s-40-17.9-40-40 17.9-40 40-40 40 17.9 40 40z" stroke="#000" stroke-width="2" fill="#fff"/><path d="M460 1020h240v60H460z" stroke="#000" stroke-opacity="0" stroke-width="2" fill="#fff" fill-opacity="0"/><use xlink:href="#a" transform="matrix(1,0,0,1,465,1025) translate(62.691975308641986 30.455555555555552)"/><use xlink:href="#b" transform="matrix(1,0,0,1,465,1025) translate(118.80308641975309 30.455555555555552)"/><path d="M460 620h240v60H460z" stroke="#000" stroke-opacity="0" stroke-width="2" fill="#fff" fill-opacity="0"/><use xlink:href="#c" transform="matrix(1,0,0,1,465,625) translate(53.963580246913594 30.455555555555552)"/><use xlink:href="#b" transform="matrix(1,0,0,1,465,625) translate(127.53148148148148 30.455555555555552)"/><path d="M340.65 998.24l87.4-103.12" stroke="#000" stroke-width="2" fill="none"/><path d="M341.43 998.86l-.18.22L340 999l-1.35.05 1.25-1.48z"/><path d="M437.9 883.47l-5.68 13.88-7.07-6z" stroke="#000" stroke-width="2"/><path d="M240.32 798.05l33.74-99.53" stroke="#000" stroke-width="2" fill="none"/><path d="M241.28 798.35l-.25.7L240 799l-1.07.04.45-1.33z"/><path d="M278.96 684.07l-.2 15-8.77-2.98z" stroke="#000" stroke-width="2"/><path d="M240.8 798.4L385.1 692" stroke="#000" stroke-width="2" fill="none"/><path d="M241.33 799.08L240 799l-1.77.06 2-1.47z"/><path d="M397.4 682.92l-8.73 12.2-5.5-7.46z" stroke="#000" stroke-width="2"/><path d="M439.68 798.05l-33.74-99.53" stroke="#000" stroke-width="2" fill="none"/><path d="M441.08 799.07L440 799l-1.04.04-.24-.7 1.9-.63z"/><path d="M401.04 684.07L410 696.1l-8.77 2.96z" stroke="#000" stroke-width="2"/><path d="M439.2 798.4L294.9 692" stroke="#000" stroke-width="2" fill="none"/><path d="M441.84 799.1L440 799l-1.3.05 1.07-1.46z"/><path d="M282.6 682.92l14.24 4.74-5.5 7.46z" stroke="#000" stroke-width="2"/><path d="M339.35 998.24l-87.4-103.12" stroke="#000" stroke-width="2" fill="none"/><path d="M341.38 999.08L340 999l-1.27.04-.16-.18 1.53-1.3z"/><path d="M242.1 883.47l12.75 7.9-7.07 5.98z" stroke="#000" stroke-width="2"/><path d="M240 998v-98.5" stroke="#000" stroke-width="2" fill="none"/><path d="M241 999.06l-1-.06-1 .03v-1.06h2z"/><path d="M240 884.24l4.64 14.26h-9.28z" stroke="#000" stroke-width="2"/><path d="M240.86 998.5l183.2-108.1" stroke="#000" stroke-width="2" fill="none"/><path d="M241.24 999.08L240 999l-2.1.07 2.48-1.45z"/><path d="M437.2 882.65l-9.92 11.24-4.7-8z" stroke="#000" stroke-width="2"/><path d="M440 998v-98.5M440 997.97V999" stroke="#000" stroke-width="2" fill="none"/><path d="M440 884.24l4.64 14.26h-9.28z" stroke="#000" stroke-width="2"/><path d="M439.14 998.5l-183.2-108.1" stroke="#000" stroke-width="2" fill="none"/><path d="M442.2 999.14L440 999l-1.22.04.84-1.42z"/><path d="M242.8 882.65l14.63 3.25-4.7 8z" stroke="#000" stroke-width="2"/><path d="M460 820h240v60H460z" stroke="#000" stroke-opacity="0" stroke-width="2" fill="#fff" fill-opacity="0"/><use xlink:href="#d" transform="matrix(1,0,0,1,465,825) translate(52.155555555555566 30.455555555555552)"/><use xlink:href="#b" transform="matrix(1,0,0,1,465,825) translate(129.3395061728395 30.455555555555552)"/><path d="M240.65 998.24l87.4-103.12" stroke="#000" stroke-width="2" fill="none"/><path d="M241.43 998.86l-.18.22L240 999l-1.35.05 1.25-1.48z"/><path d="M337.9 883.47l-5.68 13.88-7.07-6z" stroke="#000" stroke-width="2"/><path d="M340 998v-98.5" stroke="#000" stroke-width="2" fill="none"/><path d="M341 999.06l-1-.06-1 .03v-1.06h2z"/><path d="M340 884.24l4.64 14.26h-9.28z" stroke="#000" stroke-width="2"/><path d="M439.35 998.24l-87.4-103.12" stroke="#000" stroke-width="2" fill="none"/><path d="M441.38 999.08L440 999l-1.27.04-.16-.18 1.53-1.3z"/><path d="M342.1 883.47l12.75 7.9-7.07 5.98z" stroke="#000" stroke-width="2"/><path d="M339.55 798.1L288.4 697.5" stroke="#000" stroke-width="2" fill="none"/><path d="M341.16 799.07L340 799l-1.1.04-.26-.5 1.8-.9z"/><path d="M281.47 683.9l10.6 10.6-8.27 4.2z" stroke="#000" stroke-width="2"/><path d="M340.45 798.1l51.16-100.6" stroke="#000" stroke-width="2" fill="none"/><path d="M341.36 798.54l-.27.53-1.1-.07-1.14.04.7-1.4z"/><path d="M398.53 683.9l-2.33 14.8-8.26-4.2z" stroke="#000" stroke-width="2"/><path d="M640 880h240v60H640z" stroke="#000" stroke-opacity="0" stroke-width="2" fill="#fff" fill-opacity="0"/><use xlink:href="#e" transform="matrix(1,0,0,1,645,884.993366540009) translate(103.525 30.025)"/><path d="M220 520h240v60H220z" stroke="#000" stroke-opacity="0" stroke-width="2" fill="#fff" fill-opacity="0"/><g><use xlink:href="#f" transform="matrix(1,0,0,1,225,525) translate(12.699999999999989 17.525)"/><use xlink:href="#g" transform="matrix(1,0,0,1,225,525) translate(28.69999999999999 17.525)"/><use xlink:href="#h" transform="matrix(1,0,0,1,225,525) translate(110.45 17.525)"/><use xlink:href="#i" transform="matrix(1,0,0,1,225,525) translate(201.35000000000002 17.525)"/><use xlink:href="#j" transform="matrix(1,0,0,1,225,525) translate(56.099999999999994 39.125)"/><use xlink:href="#k" transform="matrix(1,0,0,1,225,525) translate(111 39.125)"/></g><defs><path d="M33 0v-248h34V0H33" id="l"/><path d="M117-194c89-4 53 116 60 194h-32v-121c0-31-8-49-39-48C34-167 62-67 57 0H25l-1-190h30c1 10-1 24 2 32 11-22 29-35 61-36" id="m"/><path d="M115-194c55 1 70 41 70 98S169 2 115 4C84 4 66-9 55-30l1 105H24l-1-265h31l2 30c10-21 28-34 59-34zm-8 174c40 0 45-34 45-75s-6-73-45-74c-42 0-51 32-51 76 0 43 10 73 51 73" id="n"/><path d="M84 4C-5 8 30-112 23-190h32v120c0 31 7 50 39 49 72-2 45-101 50-169h31l1 190h-30c-1-10 1-25-2-33-11 22-28 36-60 37" id="o"/><path d="M59-47c-2 24 18 29 38 22v24C64 9 27 4 27-40v-127H5v-23h24l9-43h21v43h35v23H59v120" id="p"/><g id="a"><use transform="matrix(0.06234567901234567,0,0,0.06234567901234567,0,0)" xlink:href="#l"/><use transform="matrix(0.06234567901234567,0,0,0.06234567901234567,6.234567901234566,0)" xlink:href="#m"/><use transform="matrix(0.06234567901234567,0,0,0.06234567901234567,18.7037037037037,0)" xlink:href="#n"/><use transform="matrix(0.06234567901234567,0,0,0.06234567901234567,31.17283950617283,0)" xlink:href="#o"/><use transform="matrix(0.06234567901234567,0,0,0.06234567901234567,43.64197530864196,0)" xlink:href="#p"/></g><path d="M24 0v-261h32V0H24" id="q"/><path d="M141-36C126-15 110 5 73 4 37 3 15-17 15-53c-1-64 63-63 125-63 3-35-9-54-41-54-24 1-41 7-42 31l-33-3c5-37 33-52 76-52 45 0 72 20 72 64v82c-1 20 7 32 28 27v20c-31 9-61-2-59-35zM48-53c0 20 12 33 32 33 41-3 63-29 60-74-43 2-92-5-92 41" id="r"/><path d="M179-190L93 31C79 59 56 82 12 73V49c39 6 53-20 64-50L1-190h34L92-34l54-156h33" id="s"/><path d="M100-194c63 0 86 42 84 106H49c0 40 14 67 53 68 26 1 43-12 49-29l28 8c-11 28-37 45-77 45C44 4 14-33 15-96c1-61 26-98 85-98zm52 81c6-60-76-77-97-28-3 7-6 17-6 28h103" id="t"/><path d="M114-163C36-179 61-72 57 0H25l-1-190h30c1 12-1 29 2 39 6-27 23-49 58-41v29" id="u"/><g id="b"><use transform="matrix(0.06234567901234567,0,0,0.06234567901234567,0,0)" xlink:href="#q"/><use transform="matrix(0.06234567901234567,0,0,0.06234567901234567,4.925308641975308,0)" xlink:href="#r"/><use transform="matrix(0.06234567901234567,0,0,0.06234567901234567,17.39444444444444,0)" xlink:href="#s"/><use transform="matrix(0.06234567901234567,0,0,0.06234567901234567,28.61666666666666,0)" xlink:href="#t"/><use transform="matrix(0.06234567901234567,0,0,0.06234567901234567,41.08580246913579,0)" xlink:href="#u"/></g><path d="M140-251c81 0 123 46 123 126C263-46 219 4 140 4 59 4 17-45 17-125s42-126 123-126zm0 227c63 0 89-41 89-101s-29-99-89-99c-61 0-89 39-89 99S79-25 140-24" id="v"/><g id="c"><use transform="matrix(0.06234567901234567,0,0,0.06234567901234567,0,0)" xlink:href="#v"/><use transform="matrix(0.06234567901234567,0,0,0.06234567901234567,17.456790123456788,0)" xlink:href="#o"/><use transform="matrix(0.06234567901234567,0,0,0.06234567901234567,29.92592592592592,0)" xlink:href="#p"/><use transform="matrix(0.06234567901234567,0,0,0.06234567901234567,36.16049382716049,0)" xlink:href="#n"/><use transform="matrix(0.06234567901234567,0,0,0.06234567901234567,48.62962962962962,0)" xlink:href="#o"/><use transform="matrix(0.06234567901234567,0,0,0.06234567901234567,61.09876543209875,0)" xlink:href="#p"/></g><path d="M197 0v-115H63V0H30v-248h33v105h134v-105h34V0h-34" id="w"/><path d="M24-231v-30h32v30H24zM24 0v-190h32V0H24" id="x"/><path d="M85-194c31 0 48 13 60 33l-1-100h32l1 261h-30c-2-10 0-23-3-31C134-8 116 4 85 4 32 4 16-35 15-94c0-66 23-100 70-100zm9 24c-40 0-46 34-46 75 0 40 6 74 45 74 42 0 51-32 51-76 0-42-9-74-50-73" id="y"/><g id="d"><use transform="matrix(0.06234567901234567,0,0,0.06234567901234567,0,0)" xlink:href="#w"/><use transform="matrix(0.06234567901234567,0,0,0.06234567901234567,16.147530864197527,0)" xlink:href="#x"/><use transform="matrix(0.06234567901234567,0,0,0.06234567901234567,21.072839506172834,0)" xlink:href="#y"/><use transform="matrix(0.06234567901234567,0,0,0.06234567901234567,33.541975308641966,0)" xlink:href="#y"/><use transform="matrix(0.06234567901234567,0,0,0.06234567901234567,46.0111111111111,0)" xlink:href="#t"/><use transform="matrix(0.06234567901234567,0,0,0.06234567901234567,58.48024691358023,0)" xlink:href="#m"/></g><path d="M206 0h-36l-40-164L89 0H53L-1-190h32L70-26l43-164h34l41 164 42-164h31" id="z"/><path d="M101-251c68 0 85 55 85 127S166 4 100 4C33 4 14-52 14-124c0-73 17-127 87-127zm-1 229c47 0 54-49 54-102s-4-102-53-102c-51 0-55 48-55 102 0 53 5 102 54 102" id="A"/><g id="e"><use transform="matrix(0.05,0,0,0.05,0,0)" xlink:href="#z"/><use transform="matrix(0.05,0,0,0.05,12.950000000000001,0)" xlink:href="#A"/></g><path d="M205 0l-28-72H64L36 0H1l101-248h38L239 0h-34zm-38-99l-47-123c-12 45-31 82-46 123h93" id="B"/><use transform="matrix(0.05,0,0,0.05,0,0)" xlink:href="#B" id="f"/><path d="M210-169c-67 3-38 105-44 169h-31v-121c0-29-5-50-35-48C34-165 62-65 56 0H25l-1-190h30c1 10-1 24 2 32 10-44 99-50 107 0 11-21 27-35 58-36 85-2 47 119 55 194h-31v-121c0-29-5-49-35-48" id="C"/><g id="g"><use transform="matrix(0.05,0,0,0.05,0,0)" xlink:href="#C"/><use transform="matrix(0.05,0,0,0.05,14.950000000000001,0)" xlink:href="#o"/><use transform="matrix(0.05,0,0,0.05,24.950000000000003,0)" xlink:href="#q"/><use transform="matrix(0.05,0,0,0.05,28.900000000000002,0)" xlink:href="#p"/><use transform="matrix(0.05,0,0,0.05,33.900000000000006,0)" xlink:href="#x"/><use transform="matrix(0.05,0,0,0.05,37.85000000000001,0)" xlink:href="#q"/><use transform="matrix(0.05,0,0,0.05,41.80000000000001,0)" xlink:href="#r"/><use transform="matrix(0.05,0,0,0.05,51.80000000000001,0)" xlink:href="#s"/><use transform="matrix(0.05,0,0,0.05,60.80000000000001,0)" xlink:href="#t"/><use transform="matrix(0.05,0,0,0.05,70.80000000000001,0)" xlink:href="#u"/></g><path d="M96-169c-40 0-48 33-48 73s9 75 48 75c24 0 41-14 43-38l32 2c-6 37-31 61-74 61-59 0-76-41-82-99-10-93 101-131 147-64 4 7 5 14 7 22l-32 3c-4-21-16-35-41-35" id="D"/><path d="M100-194c62-1 85 37 85 99 1 63-27 99-86 99S16-35 15-95c0-66 28-99 85-99zM99-20c44 1 53-31 53-75 0-43-8-75-51-75s-53 32-53 75 10 74 51 75" id="E"/><g id="h"><use transform="matrix(0.05,0,0,0.05,0,0)" xlink:href="#n"/><use transform="matrix(0.05,0,0,0.05,10,0)" xlink:href="#t"/><use transform="matrix(0.05,0,0,0.05,20,0)" xlink:href="#u"/><use transform="matrix(0.05,0,0,0.05,25.950000000000003,0)" xlink:href="#D"/><use transform="matrix(0.05,0,0,0.05,34.95,0)" xlink:href="#t"/><use transform="matrix(0.05,0,0,0.05,44.95,0)" xlink:href="#n"/><use transform="matrix(0.05,0,0,0.05,54.95,0)" xlink:href="#p"/><use transform="matrix(0.05,0,0,0.05,59.95,0)" xlink:href="#u"/><use transform="matrix(0.05,0,0,0.05,65.9,0)" xlink:href="#E"/><use transform="matrix(0.05,0,0,0.05,75.9,0)" xlink:href="#m"/></g><g id="i"><use transform="matrix(0.05,0,0,0.05,0,0)" xlink:href="#E"/><use transform="matrix(0.05,0,0,0.05,10,0)" xlink:href="#u"/></g><g id="j"><use transform="matrix(0.05,0,0,0.05,0,0)" xlink:href="#m"/><use transform="matrix(0.05,0,0,0.05,10,0)" xlink:href="#t"/><use transform="matrix(0.05,0,0,0.05,20,0)" xlink:href="#o"/><use transform="matrix(0.05,0,0,0.05,30,0)" xlink:href="#u"/><use transform="matrix(0.05,0,0,0.05,35.95,0)" xlink:href="#r"/><use transform="matrix(0.05,0,0,0.05,45.95,0)" xlink:href="#q"/></g><path d="M143 0L79-87 56-68V0H24v-261h32v163l83-92h37l-77 82L181 0h-38" id="F"/><g id="k"><use transform="matrix(0.05,0,0,0.05,0,0)" xlink:href="#m"/><use transform="matrix(0.05,0,0,0.05,10,0)" xlink:href="#t"/><use transform="matrix(0.05,0,0,0.05,20,0)" xlink:href="#p"/><use transform="matrix(0.05,0,0,0.05,25,0)" xlink:href="#z"/><use transform="matrix(0.05,0,0,0.05,37.95,0)" xlink:href="#E"/><use transform="matrix(0.05,0,0,0.05,47.95,0)" xlink:href="#u"/><use transform="matrix(0.05,0,0,0.05,53.900000000000006,0)" xlink:href="#F"/></g></defs></g></svg>