<svg xmlns="http://www.w3.org/2000/svg" xmlns:xlink="http://www.w3.org/1999/xlink" xmlns:lucid="lucid" width="440" height="517"><g transform="translate(-680 -533)" lucid:page-tab-id="0_0"><path d="M917 803c0 42.53-35.15 77-78.5 77S760 845.53 760 803s35.15-77 78.5-77 78.5 34.47 78.5 77z" stroke="#000" stroke-width="2" fill="#fff"/><path d="M460 1020h240v60H460z" stroke="#000" stroke-opacity="0" stroke-width="2" fill="#fff" fill-opacity="0"/><use xlink:href="#a" transform="matrix(1,0,0,1,465,1025) translate(62.691975308641986 30.455555555555552)"/><use xlink:href="#b" transform="matrix(1,0,0,1,465,1025) translate(118.80308641975309 30.455555555555552)"/><path d="M460 620h240v60H460z" stroke="#000" stroke-opacity="0" stroke-width="2" fill="#fff" fill-opacity="0"/><use xlink:href="#c" transform="matrix(1,0,0,1,465,625) translate(53.963580246913594 30.455555555555552)"/><use xlink:href="#b" transform="matrix(1,0,0,1,465,625) translate(127.53148148148148 30.455555555555552)"/><path d="M460 820h240v60H460z" stroke="#000" stroke-opacity="0" stroke-width="2" fill="#fff" fill-opacity="0"/><use xlink:href="#d" transform="matrix(1,0,0,1,465,825) translate(52.155555555555566 30.455555555555552)"/><use xlink:href="#b" transform="matrix(1,0,0,1,465,825) translate(129.3395061728395 30.455555555555552)"/><path d="M780 990c0 22.08-17.9 40-40 40s-40-17.92-40-40c0-22.1 17.9-40 40-40s40 17.9 40 40z" stroke="#000" stroke-width="2" fill="#fff"/><use xlink:href="#e" transform="matrix(1,0,0,1,705,954.993366540009) translate(25.5 38.4625)"/><path d="M880 990c0 22.08-17.9 40-40 40s-40-17.92-40-40c0-22.1 17.9-40 40-40s40 17.9 40 40z" stroke="#000" stroke-width="2" fill="#fff"/><use xlink:href="#f" transform="matrix(1,0,0,1,805,954.993366540009) translate(25.5 38.4625)"/><path d="M980 990c0 22.08-17.9 40-40 40s-40-17.92-40-40c0-22.1 17.9-40 40-40s40 17.9 40 40z" stroke="#000" stroke-width="2" fill="#fff"/><use xlink:href="#g" transform="matrix(1,0,0,1,905,954.993366540009) translate(25.5 38.4625)"/><path d="M740.82 948.42l82.45-56.9" stroke="#000" stroke-width="2" fill="none"/><path d="M741.3 949.07L740 949l-1.86.06 2.14-1.47z"/><path d="M835.84 882.84l-9.1 11.92-5.28-7.63z" stroke="#000" stroke-width="2"/><path d="M839.98 948l-1.07-48.5" stroke="#000" stroke-width="2" fill="none"/><path d="M841 949.05l-1-.06-1 .03-.02-1.04 2-.05z"/><path d="M838.57 884.24l4.95 14.16-9.27.2z" stroke="#000" stroke-width="2"/><path d="M939.17 948.44l-85.3-57.14" stroke="#000" stroke-width="2" fill="none"/><path d="M941.98 949.1L940 949l-1.26.04.96-1.45z"/><path d="M841.2 882.8l14.42 4.1-5.16 7.7z" stroke="#000" stroke-width="2"/><path d="M840 724.05V698.5" stroke="#000" stroke-width="2" fill="none"/><path d="M841 725.08l-2-.06v-1h2z"/><path d="M840 683.24l4.64 14.26h-9.28z" stroke="#000" stroke-width="2"/><path d="M780 783h120v40H780z" fill="#fff"/><use xlink:href="#h" transform="matrix(1,0,0,1,785,788) translate(0 15.644444444444444)"/><use xlink:href="#i" transform="matrix(1,0,0,1,785,788) translate(15.209876543209875 15.644444444444444)"/><use xlink:href="#j" transform="matrix(1,0,0,1,785,788) translate(32.04938271604938 15.644444444444444)"/><use xlink:href="#k" transform="matrix(1,0,0,1,785,788) translate(49.16049382716049 15.644444444444444)"/><use xlink:href="#l" transform="matrix(1,0,0,1,785,788) translate(79.4716049382716 15.644444444444444)"/><path d="M640 880h240v60H640z" stroke="#000" stroke-opacity="0" stroke-width="2" fill="#fff" fill-opacity="0"/><use xlink:href="#m" transform="matrix(1,0,0,1,645,884.993366540009) translate(103.525 30.025)"/><path d="M700 900h240v60H700z" stroke="#000" stroke-opacity="0" stroke-width="2" fill="#fff" fill-opacity="0"/><use xlink:href="#n" transform="matrix(1,0,0,1,705,904.993366540009) translate(103.525 30.025)"/><path d="M800 880h240v60H800z" stroke="#000" stroke-opacity="0" stroke-width="2" fill="#fff" fill-opacity="0"/><use xlink:href="#o" transform="matrix(1,0,0,1,805,884.993366540009) translate(103.525 30.025)"/><path d="M960 980h140v60H960z" stroke="#000" stroke-opacity="0" stroke-width="2" fill="#fff" fill-opacity="0"/><use xlink:href="#p" transform="matrix(1,0,0,1,965,984.993366540009) translate(40.5 30.025)"/><path d="M900 890h240v60H900z" stroke="#000" stroke-opacity="0" stroke-width="2" fill="#fff" fill-opacity="0"/><use xlink:href="#q" transform="matrix(1,0,0,1,905,894.993366540009) translate(82.725 30.025)"/><path d="M900 780h240v60H900z" stroke="#000" stroke-opacity="0" stroke-width="2" fill="#fff" fill-opacity="0"/><use xlink:href="#r" transform="matrix(1,0,0,1,905,785) translate(57.75 17.525)"/><use xlink:href="#s" transform="matrix(1,0,0,1,905,785) translate(138.3 17.525)"/><use xlink:href="#t" transform="matrix(1,0,0,1,905,785) translate(66.025 39.125)"/><use xlink:href="#u" transform="matrix(1,0,0,1,905,785) translate(86.025 39.125)"/><use xlink:href="#v" transform="matrix(1,0,0,1,905,785) translate(116.025 39.125)"/><path d="M900 640h240v60H900z" stroke="#000" stroke-opacity="0" stroke-width="2" fill="#fff" fill-opacity="0"/><g><use xlink:href="#w" transform="matrix(1,0,0,1,905,645) translate(33.17499999999998 17.525)"/><use xlink:href="#x" transform="matrix(1,0,0,1,905,645) translate(120.925 17.525)"/><use xlink:href="#y" transform="matrix(1,0,0,1,905,645) translate(83.525 39.125)"/></g><path d="M800 640h140v40H800z" fill="#fff"/><g><use xlink:href="#z" transform="matrix(1,0,0,1,805,645) translate(0 17.422222222222224)"/><use xlink:href="#A" transform="matrix(1,0,0,1,805,645) translate(16.938271604938272 17.422222222222224)"/><use xlink:href="#B" transform="matrix(1,0,0,1,805,645) translate(35.69135802469136 17.422222222222224)"/></g><path d="M720 540h240v74.8H720z" stroke="#000" stroke-opacity="0" stroke-width="2" fill="#fff" fill-opacity="0"/><g><use xlink:href="#C" transform="matrix(1,0,0,1,725,545) translate(18.64999999999999 24.55625)"/><use xlink:href="#D" transform="matrix(1,0,0,1,725,545) translate(34.64999999999999 24.55625)"/><use xlink:href="#E" transform="matrix(1,0,0,1,725,545) translate(79.64999999999999 24.55625)"/><use xlink:href="#F" transform="matrix(1,0,0,1,725,545) translate(116.55 24.55625)"/><use xlink:href="#G" transform="matrix(1,0,0,1,725,545) translate(131.55 24.55625)"/><use xlink:href="#H" transform="matrix(1,0,0,1,725,545) translate(43.07499999999999 46.15625)"/><use xlink:href="#I" transform="matrix(1,0,0,1,725,545) translate(123.975 46.15625)"/></g><defs><path d="M33 0v-248h34V0H33" id="J"/><path d="M117-194c89-4 53 116 60 194h-32v-121c0-31-8-49-39-48C34-167 62-67 57 0H25l-1-190h30c1 10-1 24 2 32 11-22 29-35 61-36" id="K"/><path d="M115-194c55 1 70 41 70 98S169 2 115 4C84 4 66-9 55-30l1 105H24l-1-265h31l2 30c10-21 28-34 59-34zm-8 174c40 0 45-34 45-75s-6-73-45-74c-42 0-51 32-51 76 0 43 10 73 51 73" id="L"/><path d="M84 4C-5 8 30-112 23-190h32v120c0 31 7 50 39 49 72-2 45-101 50-169h31l1 190h-30c-1-10 1-25-2-33-11 22-28 36-60 37" id="M"/><path d="M59-47c-2 24 18 29 38 22v24C64 9 27 4 27-40v-127H5v-23h24l9-43h21v43h35v23H59v120" id="N"/><g id="a"><use transform="matrix(0.06234567901234567,0,0,0.06234567901234567,0,0)" xlink:href="#J"/><use transform="matrix(0.06234567901234567,0,0,0.06234567901234567,6.234567901234566,0)" xlink:href="#K"/><use transform="matrix(0.06234567901234567,0,0,0.06234567901234567,18.7037037037037,0)" xlink:href="#L"/><use transform="matrix(0.06234567901234567,0,0,0.06234567901234567,31.17283950617283,0)" xlink:href="#M"/><use transform="matrix(0.06234567901234567,0,0,0.06234567901234567,43.64197530864196,0)" xlink:href="#N"/></g><path d="M24 0v-261h32V0H24" id="O"/><path d="M141-36C126-15 110 5 73 4 37 3 15-17 15-53c-1-64 63-63 125-63 3-35-9-54-41-54-24 1-41 7-42 31l-33-3c5-37 33-52 76-52 45 0 72 20 72 64v82c-1 20 7 32 28 27v20c-31 9-61-2-59-35zM48-53c0 20 12 33 32 33 41-3 63-29 60-74-43 2-92-5-92 41" id="P"/><path d="M179-190L93 31C79 59 56 82 12 73V49c39 6 53-20 64-50L1-190h34L92-34l54-156h33" id="Q"/><path d="M100-194c63 0 86 42 84 106H49c0 40 14 67 53 68 26 1 43-12 49-29l28 8c-11 28-37 45-77 45C44 4 14-33 15-96c1-61 26-98 85-98zm52 81c6-60-76-77-97-28-3 7-6 17-6 28h103" id="R"/><path d="M114-163C36-179 61-72 57 0H25l-1-190h30c1 12-1 29 2 39 6-27 23-49 58-41v29" id="S"/><g id="b"><use transform="matrix(0.06234567901234567,0,0,0.06234567901234567,0,0)" xlink:href="#O"/><use transform="matrix(0.06234567901234567,0,0,0.06234567901234567,4.925308641975308,0)" xlink:href="#P"/><use transform="matrix(0.06234567901234567,0,0,0.06234567901234567,17.39444444444444,0)" xlink:href="#Q"/><use transform="matrix(0.06234567901234567,0,0,0.06234567901234567,28.61666666666666,0)" xlink:href="#R"/><use transform="matrix(0.06234567901234567,0,0,0.06234567901234567,41.08580246913579,0)" xlink:href="#S"/></g><path d="M140-251c81 0 123 46 123 126C263-46 219 4 140 4 59 4 17-45 17-125s42-126 123-126zm0 227c63 0 89-41 89-101s-29-99-89-99c-61 0-89 39-89 99S79-25 140-24" id="T"/><g id="c"><use transform="matrix(0.06234567901234567,0,0,0.06234567901234567,0,0)" xlink:href="#T"/><use transform="matrix(0.06234567901234567,0,0,0.06234567901234567,17.456790123456788,0)" xlink:href="#M"/><use transform="matrix(0.06234567901234567,0,0,0.06234567901234567,29.92592592592592,0)" xlink:href="#N"/><use transform="matrix(0.06234567901234567,0,0,0.06234567901234567,36.16049382716049,0)" xlink:href="#L"/><use transform="matrix(0.06234567901234567,0,0,0.06234567901234567,48.62962962962962,0)" xlink:href="#M"/><use transform="matrix(0.06234567901234567,0,0,0.06234567901234567,61.09876543209875,0)" xlink:href="#N"/></g><path d="M197 0v-115H63V0H30v-248h33v105h134v-105h34V0h-34" id="U"/><path d="M24-231v-30h32v30H24zM24 0v-190h32V0H24" id="V"/><path d="M85-194c31 0 48 13 60 33l-1-100h32l1 261h-30c-2-10 0-23-3-31C134-8 116 4 85 4 32 4 16-35 15-94c0-66 23-100 70-100zm9 24c-40 0-46 34-46 75 0 40 6 74 45 74 42 0 51-32 51-76 0-42-9-74-50-73" id="W"/><g id="d"><use transform="matrix(0.06234567901234567,0,0,0.06234567901234567,0,0)" xlink:href="#U"/><use transform="matrix(0.06234567901234567,0,0,0.06234567901234567,16.147530864197527,0)" xlink:href="#V"/><use transform="matrix(0.06234567901234567,0,0,0.06234567901234567,21.072839506172834,0)" xlink:href="#W"/><use transform="matrix(0.06234567901234567,0,0,0.06234567901234567,33.541975308641966,0)" xlink:href="#W"/><use transform="matrix(0.06234567901234567,0,0,0.06234567901234567,46.0111111111111,0)" xlink:href="#R"/><use transform="matrix(0.06234567901234567,0,0,0.06234567901234567,58.48024691358023,0)" xlink:href="#K"/></g><path d="M141 0L90-78 38 0H4l68-98-65-92h35l48 74 47-74h35l-64 92 68 98h-35" id="X"/><path d="M101-251c68 0 85 55 85 127S166 4 100 4C33 4 14-52 14-124c0-73 17-127 87-127zm-1 229c47 0 54-49 54-102s-4-102-53-102c-51 0-55 48-55 102 0 53 5 102 54 102" id="Y"/><g id="e"><use transform="matrix(0.05,0,0,0.05,0,0)" xlink:href="#X"/><use transform="matrix(0.05,0,0,0.05,9,0)" xlink:href="#Y"/></g><path d="M27 0v-27h64v-190l-56 39v-29l58-41h29v221h61V0H27" id="Z"/><g id="f"><use transform="matrix(0.05,0,0,0.05,0,0)" xlink:href="#X"/><use transform="matrix(0.05,0,0,0.05,9,0)" xlink:href="#Z"/></g><path d="M101-251c82-7 93 87 43 132L82-64C71-53 59-42 53-27h129V0H18c2-99 128-94 128-182 0-28-16-43-45-43s-46 15-49 41l-32-3c6-41 34-60 81-64" id="aa"/><g id="g"><use transform="matrix(0.05,0,0,0.05,0,0)" xlink:href="#X"/><use transform="matrix(0.05,0,0,0.05,9,0)" xlink:href="#aa"/></g><path d="M198-190L69 30C53 58 25 83-20 72c4-11-1-27 19-22 33-1 43-29 59-52L20-190h32L79-34l84-156h35" id="ab"/><use transform="matrix(0.05432098765432098,0,0,0.05432098765432098,0,0)" xlink:href="#ab" id="h"/><path d="M23-150v-26h175v26H23zm0 90v-26h175v26H23" id="ac"/><use transform="matrix(0.05432098765432098,0,0,0.05432098765432098,0,0)" xlink:href="#ac" id="i"/><path d="M-1 0l6-30 114-102-74-89 5-27h176l-6 28H81l68 80-4 20L41-27h153l-6 27H-1" id="ad"/><use transform="matrix(0.05432098765432098,0,0,0.05432098765432098,0,0)" xlink:href="#ad" id="j"/><path d="M17-49c1-102 45-165 103-212h30C92-210 49-145 49-46 49 4 63 43 85 75H54C30 43 18 2 17-49" id="ae"/><path d="M247 0h-39l-15-214-24 57L95 0H56L31-248h35L82-30l101-218h33l16 218 101-218h35" id="af"/><g id="k"><use transform="matrix(0.05432098765432098,0,0,0.05432098765432098,0,0)" xlink:href="#ae"/><use transform="matrix(0.05432098765432098,0,0,0.05432098765432098,6.464197530864197,0)" xlink:href="#af"/></g><path d="M176 0l-54-107L30 0H-7l115-131-60-117h35l48 97 83-97h37L146-129 211 0h-35" id="ag"/><path d="M98-137C97-35 54 29-4 75h-31C23 23 67-41 67-140c0-50-15-89-37-121h31c24 32 36 73 37 124" id="ah"/><g id="l"><use transform="matrix(0.05432098765432098,0,0,0.05432098765432098,0,0)" xlink:href="#ag"/><use transform="matrix(0.05432098765432098,0,0,0.05432098765432098,13.037037037037035,0)" xlink:href="#ah"/></g><path d="M206 0h-36l-40-164L89 0H53L-1-190h32L70-26l43-164h34l41 164 42-164h31" id="ai"/><g id="m"><use transform="matrix(0.05,0,0,0.05,0,0)" xlink:href="#ai"/><use transform="matrix(0.05,0,0,0.05,12.950000000000001,0)" xlink:href="#Y"/></g><g id="n"><use transform="matrix(0.05,0,0,0.05,0,0)" xlink:href="#ai"/><use transform="matrix(0.05,0,0,0.05,12.950000000000001,0)" xlink:href="#Z"/></g><g id="o"><use transform="matrix(0.05,0,0,0.05,0,0)" xlink:href="#ai"/><use transform="matrix(0.05,0,0,0.05,12.950000000000001,0)" xlink:href="#aa"/></g><path d="M135-143c-3-34-86-38-87 0 15 53 115 12 119 90S17 21 10-45l28-5c4 36 97 45 98 0-10-56-113-15-118-90-4-57 82-63 122-42 12 7 21 19 24 35" id="aj"/><g id="p"><use transform="matrix(0.05,0,0,0.05,0,0)" xlink:href="#J"/><use transform="matrix(0.05,0,0,0.05,5,0)" xlink:href="#K"/><use transform="matrix(0.05,0,0,0.05,15,0)" xlink:href="#L"/><use transform="matrix(0.05,0,0,0.05,25,0)" xlink:href="#M"/><use transform="matrix(0.05,0,0,0.05,35,0)" xlink:href="#N"/><use transform="matrix(0.05,0,0,0.05,40,0)" xlink:href="#aj"/></g><path d="M266 0h-40l-56-210L115 0H75L2-248h35L96-30l15-64 43-154h32l59 218 59-218h35" id="ak"/><path d="M177-190C167-65 218 103 67 71c-23-6-38-20-44-43l32-5c15 47 100 32 89-28v-30C133-14 115 1 83 1 29 1 15-40 15-95c0-56 16-97 71-98 29-1 48 16 59 35 1-10 0-23 2-32h30zM94-22c36 0 50-32 50-73 0-42-14-75-50-75-39 0-46 34-46 75s6 73 46 73" id="al"/><path d="M106-169C34-169 62-67 57 0H25v-261h32l-1 103c12-21 28-36 61-36 89 0 53 116 60 194h-32v-121c2-32-8-49-39-48" id="am"/><g id="q"><use transform="matrix(0.05,0,0,0.05,0,0)" xlink:href="#ak"/><use transform="matrix(0.05,0,0,0.05,16.599999999999998,0)" xlink:href="#R"/><use transform="matrix(0.05,0,0,0.05,26.599999999999994,0)" xlink:href="#V"/><use transform="matrix(0.05,0,0,0.05,30.549999999999997,0)" xlink:href="#al"/><use transform="matrix(0.05,0,0,0.05,40.55,0)" xlink:href="#am"/><use transform="matrix(0.05,0,0,0.05,50.55,0)" xlink:href="#N"/><use transform="matrix(0.05,0,0,0.05,55.54999999999999,0)" xlink:href="#aj"/></g><g id="r"><use transform="matrix(0.05,0,0,0.05,0,0)" xlink:href="#ak"/><use transform="matrix(0.05,0,0,0.05,16.599999999999998,0)" xlink:href="#R"/><use transform="matrix(0.05,0,0,0.05,26.599999999999994,0)" xlink:href="#V"/><use transform="matrix(0.05,0,0,0.05,30.549999999999997,0)" xlink:href="#al"/><use transform="matrix(0.05,0,0,0.05,40.55,0)" xlink:href="#am"/><use transform="matrix(0.05,0,0,0.05,50.55,0)" xlink:href="#N"/><use transform="matrix(0.05,0,0,0.05,55.54999999999999,0)" xlink:href="#R"/><use transform="matrix(0.05,0,0,0.05,65.55,0)" xlink:href="#W"/></g><path d="M210-169c-67 3-38 105-44 169h-31v-121c0-29-5-50-35-48C34-165 62-65 56 0H25l-1-190h30c1 10-1 24 2 32 10-44 99-50 107 0 11-21 27-35 58-36 85-2 47 119 55 194h-31v-121c0-29-5-49-35-48" id="an"/><g id="s"><use transform="matrix(0.05,0,0,0.05,0,0)" xlink:href="#aj"/><use transform="matrix(0.05,0,0,0.05,9,0)" xlink:href="#M"/><use transform="matrix(0.05,0,0,0.05,19,0)" xlink:href="#an"/></g><path d="M100-194c62-1 85 37 85 99 1 63-27 99-86 99S16-35 15-95c0-66 28-99 85-99zM99-20c44 1 53-31 53-75 0-43-8-75-51-75s-53 32-53 75 10 74 51 75" id="ao"/><path d="M101-234c-31-9-42 10-38 44h38v23H63V0H32v-167H5v-23h27c-7-52 17-82 69-68v24" id="ap"/><g id="t"><use transform="matrix(0.05,0,0,0.05,0,0)" xlink:href="#ao"/><use transform="matrix(0.05,0,0,0.05,10,0)" xlink:href="#ap"/></g><g id="u"><use transform="matrix(0.05,0,0,0.05,0,0)" xlink:href="#N"/><use transform="matrix(0.05,0,0,0.05,5,0)" xlink:href="#am"/><use transform="matrix(0.05,0,0,0.05,15,0)" xlink:href="#R"/></g><g id="v"><use transform="matrix(0.05,0,0,0.05,0,0)" xlink:href="#V"/><use transform="matrix(0.05,0,0,0.05,3.95,0)" xlink:href="#K"/><use transform="matrix(0.05,0,0,0.05,13.949999999999998,0)" xlink:href="#L"/><use transform="matrix(0.05,0,0,0.05,23.95,0)" xlink:href="#M"/><use transform="matrix(0.05,0,0,0.05,33.95,0)" xlink:href="#N"/><use transform="matrix(0.05,0,0,0.05,38.95,0)" xlink:href="#aj"/></g><path d="M190 0L58-211 59 0H30v-248h39L202-35l-2-213h31V0h-41" id="aq"/><path d="M16-82v-28h88v28H16" id="ar"/><g id="w"><use transform="matrix(0.05,0,0,0.05,0,0)" xlink:href="#aq"/><use transform="matrix(0.05,0,0,0.05,12.950000000000001,0)" xlink:href="#ao"/><use transform="matrix(0.05,0,0,0.05,22.950000000000003,0)" xlink:href="#K"/><use transform="matrix(0.05,0,0,0.05,32.95,0)" xlink:href="#ar"/><use transform="matrix(0.05,0,0,0.05,38.900000000000006,0)" xlink:href="#O"/><use transform="matrix(0.05,0,0,0.05,42.85000000000001,0)" xlink:href="#V"/><use transform="matrix(0.05,0,0,0.05,46.80000000000001,0)" xlink:href="#K"/><use transform="matrix(0.05,0,0,0.05,56.80000000000001,0)" xlink:href="#R"/><use transform="matrix(0.05,0,0,0.05,66.80000000000001,0)" xlink:href="#P"/><use transform="matrix(0.05,0,0,0.05,76.80000000000001,0)" xlink:href="#S"/></g><path d="M96-169c-40 0-48 33-48 73s9 75 48 75c24 0 41-14 43-38l32 2c-6 37-31 61-74 61-59 0-76-41-82-99-10-93 101-131 147-64 4 7 5 14 7 22l-32 3c-4-21-16-35-41-35" id="as"/><path d="M108 0H70L1-190h34L89-25l56-165h34" id="at"/><g id="x"><use transform="matrix(0.05,0,0,0.05,0,0)" xlink:href="#P"/><use transform="matrix(0.05,0,0,0.05,10,0)" xlink:href="#as"/><use transform="matrix(0.05,0,0,0.05,19,0)" xlink:href="#N"/><use transform="matrix(0.05,0,0,0.05,24,0)" xlink:href="#V"/><use transform="matrix(0.05,0,0,0.05,27.950000000000003,0)" xlink:href="#at"/><use transform="matrix(0.05,0,0,0.05,36.95,0)" xlink:href="#P"/><use transform="matrix(0.05,0,0,0.05,46.95,0)" xlink:href="#N"/><use transform="matrix(0.05,0,0,0.05,51.95,0)" xlink:href="#V"/><use transform="matrix(0.05,0,0,0.05,55.900000000000006,0)" xlink:href="#ao"/><use transform="matrix(0.05,0,0,0.05,65.9,0)" xlink:href="#K"/></g><g id="y"><use transform="matrix(0.05,0,0,0.05,0,0)" xlink:href="#ap"/><use transform="matrix(0.05,0,0,0.05,5,0)" xlink:href="#M"/><use transform="matrix(0.05,0,0,0.05,15,0)" xlink:href="#K"/><use transform="matrix(0.05,0,0,0.05,25,0)" xlink:href="#as"/><use transform="matrix(0.05,0,0,0.05,34,0)" xlink:href="#N"/><use transform="matrix(0.05,0,0,0.05,39,0)" xlink:href="#V"/><use transform="matrix(0.05,0,0,0.05,42.95,0)" xlink:href="#ao"/><use transform="matrix(0.05,0,0,0.05,52.95,0)" xlink:href="#K"/></g><path d="M-8 0l5-24 140-142H31l5-24h145l-5 24L36-24h119l-5 24H-8" id="au"/><use transform="matrix(0.06049382716049383,0,0,0.06049382716049383,0,0)" xlink:href="#au" id="z"/><use transform="matrix(0.06049382716049383,0,0,0.06049382716049383,0,0)" xlink:href="#ac" id="A"/><path d="M173-168c30 67 3 176-87 172C34 2 7-31 13-86c7-67 45-104 118-104h97l-4 23zM46-84c-4 35 9 64 42 64 69 0 73-88 58-147-64-4-94 27-100 83" id="av"/><g id="B"><use transform="matrix(0.06049382716049383,0,0,0.06049382716049383,0,0)" xlink:href="#av"/><use transform="matrix(0.06049382716049383,0,0,0.06049382716049383,13.12716049382716,0)" xlink:href="#ae"/><use transform="matrix(0.06049382716049383,0,0,0.06049382716049383,20.325925925925926,0)" xlink:href="#ab"/><use transform="matrix(0.06049382716049383,0,0,0.06049382716049383,31.214814814814815,0)" xlink:href="#ah"/></g><path d="M205 0l-28-72H64L36 0H1l101-248h38L239 0h-34zm-38-99l-47-123c-12 45-31 82-46 123h93" id="aw"/><use transform="matrix(0.05,0,0,0.05,0,0)" xlink:href="#aw" id="C"/><g id="D"><use transform="matrix(0.05,0,0,0.05,0,0)" xlink:href="#K"/><use transform="matrix(0.05,0,0,0.05,10,0)" xlink:href="#ao"/><use transform="matrix(0.05,0,0,0.05,20,0)" xlink:href="#W"/><use transform="matrix(0.05,0,0,0.05,30,0)" xlink:href="#R"/></g><g id="E"><use transform="matrix(0.05,0,0,0.05,0,0)" xlink:href="#ai"/><use transform="matrix(0.05,0,0,0.05,12.950000000000001,0)" xlink:href="#V"/><use transform="matrix(0.05,0,0,0.05,16.900000000000002,0)" xlink:href="#N"/><use transform="matrix(0.05,0,0,0.05,21.900000000000002,0)" xlink:href="#am"/></g><use transform="matrix(0.05,0,0,0.05,0,0)" xlink:href="#P" id="F"/><g id="G"><use transform="matrix(0.05,0,0,0.05,0,0)" xlink:href="#K"/><use transform="matrix(0.05,0,0,0.05,10,0)" xlink:href="#ao"/><use transform="matrix(0.05,0,0,0.05,20,0)" xlink:href="#K"/><use transform="matrix(0.05,0,0,0.05,30,0)" xlink:href="#ar"/><use transform="matrix(0.05,0,0,0.05,35.95,0)" xlink:href="#O"/><use transform="matrix(0.05,0,0,0.05,39.900000000000006,0)" xlink:href="#V"/><use transform="matrix(0.05,0,0,0.05,43.85000000000001,0)" xlink:href="#K"/><use transform="matrix(0.05,0,0,0.05,53.85,0)" xlink:href="#R"/><use transform="matrix(0.05,0,0,0.05,63.85,0)" xlink:href="#P"/><use transform="matrix(0.05,0,0,0.05,73.85000000000001,0)" xlink:href="#S"/></g><g id="H"><use transform="matrix(0.05,0,0,0.05,0,0)" xlink:href="#P"/><use transform="matrix(0.05,0,0,0.05,10,0)" xlink:href="#as"/><use transform="matrix(0.05,0,0,0.05,19,0)" xlink:href="#N"/><use transform="matrix(0.05,0,0,0.05,24,0)" xlink:href="#V"/><use transform="matrix(0.05,0,0,0.05,27.950000000000003,0)" xlink:href="#at"/><use transform="matrix(0.05,0,0,0.05,36.95,0)" xlink:href="#P"/><use transform="matrix(0.05,0,0,0.05,46.95,0)" xlink:href="#N"/><use transform="matrix(0.05,0,0,0.05,51.95,0)" xlink:href="#V"/><use transform="matrix(0.05,0,0,0.05,55.900000000000006,0)" xlink:href="#ao"/><use transform="matrix(0.05,0,0,0.05,65.9,0)" xlink:href="#K"/></g><g id="I"><use transform="matrix(0.05,0,0,0.05,0,0)" xlink:href="#ap"/><use transform="matrix(0.05,0,0,0.05,5,0)" xlink:href="#M"/><use transform="matrix(0.05,0,0,0.05,15,0)" xlink:href="#K"/><use transform="matrix(0.05,0,0,0.05,25,0)" xlink:href="#as"/><use transform="matrix(0.05,0,0,0.05,34,0)" xlink:href="#N"/><use transform="matrix(0.05,0,0,0.05,39,0)" xlink:href="#V"/><use transform="matrix(0.05,0,0,0.05,42.95,0)" xlink:href="#ao"/><use transform="matrix(0.05,0,0,0.05,52.95,0)" xlink:href="#K"/></g></defs></g></svg>