<svg xmlns="http://www.w3.org/2000/svg" xmlns:xlink="http://www.w3.org/1999/xlink" xmlns:lucid="lucid" width="844" height="291"><g transform="translate(-28 -28)" lucid:page-tab-id="0_0"><path d="M168 40c17.67 0 32 17.9 32 40s-14.33 40-32 40H72c-17.67 0-32-17.9-32-40s14.33-40 32-40z" stroke="#000" stroke-width="2" fill="#63b175"/><use xlink:href="#a" transform="matrix(1,0,0,1,45,45) translate(46.425 38.4625)"/><path d="M260 180h160v120H260z" stroke="#000" stroke-width="2" fill="#63b175" fill-opacity=".6"/><use xlink:href="#b" transform="matrix(1,0,0,1,265,185) translate(10.049999999999997 38.4625)"/><use xlink:href="#c" transform="matrix(1,0,0,1,265,185) translate(58 38.4625)"/><use xlink:href="#d" transform="matrix(1,0,0,1,265,185) translate(73 38.4625)"/><use xlink:href="#e" transform="matrix(1,0,0,1,265,185) translate(110.95 38.4625)"/><use xlink:href="#f" transform="matrix(1,0,0,1,265,185) translate(22.025 60.0625)"/><use xlink:href="#g" transform="matrix(1,0,0,1,265,185) translate(57.025 60.0625)"/><use xlink:href="#h" transform="matrix(1,0,0,1,265,185) translate(110.025 60.0625)"/><use xlink:href="#i" transform="matrix(1,0,0,1,265,185) translate(16.799999999999997 81.66250000000001)"/><use xlink:href="#j" transform="matrix(1,0,0,1,265,185) translate(62.75 81.66250000000001)"/><path d="M560 180l80 60-80 60-80-60z" stroke="#000" stroke-width="2" fill="#63b175" fill-opacity=".6"/><use xlink:href="#k" transform="matrix(1,0,0,1,485,185) translate(48.029999999999994 41.9)"/><use xlink:href="#l" transform="matrix(1,0,0,1,485,185) translate(67.03 41.9)"/><use xlink:href="#g" transform="matrix(1,0,0,1,485,185) translate(16.05499999999999 63.5)"/><use xlink:href="#m" transform="matrix(1,0,0,1,485,185) translate(69.05499999999999 63.5)"/><path d="M828 200c17.67 0 32 17.9 32 40s-14.33 40-32 40h-96c-17.67 0-32-17.9-32-40s14.33-40 32-40z" stroke="#000" stroke-width="2" fill="#63b175"/><use xlink:href="#n" transform="matrix(1,0,0,1,705,205) translate(38.349999999999994 38.4625)"/><use xlink:href="#o" transform="matrix(1,0,0,1,705,205) translate(73.69999999999999 38.4625)"/><path d="M608 40c17.67 0 32 17.9 32 40s-14.33 40-32 40h-96c-17.67 0-32-17.9-32-40s14.33-40 32-40z" stroke="#000" stroke-width="2" fill="#63b175"/><use xlink:href="#n" transform="matrix(1,0,0,1,485,45) translate(41.375 38.4625)"/><use xlink:href="#p" transform="matrix(1,0,0,1,485,45) translate(76.725 38.4625)"/><path d="M561 177.75h-2v-17.07h2z"/><path d="M561 179.5l-1-.75-1 .75v-1.78h2zM564.64 138.5h-9.28l4.64-14.26z"/><path d="M565.87 139.07h-11.74L560 121zm-9.13-1.57h6.52L560 127.47z"/><use xlink:href="#q" transform="matrix(1,0,0,1,545.325,139.075) translate(0 14.4)"/><path d="M658.86 241h-16.2v-2h16.2z"/><path d="M642.7 241h-2.37l1.34-1-1.34-1h2.36zM695.76 240l-13.95 4.53v-9.06z"/><path d="M699 240l-17.2 5.6v-11.2zm-16.5 3.26l10.03-3.26-10.03-3.26z"/><g><use xlink:href="#r" transform="matrix(1,0,0,1,658.8580222240695,229.2) translate(0 14.4)"/></g><path d="M422 240h37.83" stroke="#000" stroke-width="2" fill="none"/><path d="M422.03 241H421v-2h1.03z"/><path d="M475.1 240l-14.27 4.64v-9.28z" stroke="#000" stroke-width="2"/><path d="M40 180h160v120H40z" stroke="#000" stroke-width="2" fill="#63b175" fill-opacity=".6"/><g><use xlink:href="#s" transform="matrix(1,0,0,1,45,185) translate(5.075000000000003 48.775)"/><use xlink:href="#t" transform="matrix(1,0,0,1,45,185) translate(56.075 48.775)"/><use xlink:href="#u" transform="matrix(1,0,0,1,45,185) translate(86.075 48.775)"/><use xlink:href="#v" transform="matrix(1,0,0,1,45,185) translate(16.525 70.375)"/><use xlink:href="#w" transform="matrix(1,0,0,1,45,185) translate(75.475 70.375)"/><use xlink:href="#x" transform="matrix(1,0,0,1,45,185) translate(95.475 70.375)"/></g><path d="M120 122v38.5" stroke="#000" stroke-width="2" fill="none"/><path d="M121 122.03h-2V121h2z"/><path d="M120 175.76l-4.64-14.26h9.28z" stroke="#000" stroke-width="2"/><path d="M202 240h38.5" stroke="#000" stroke-width="2" fill="none"/><path d="M202.03 241H201v-2h1.03z"/><path d="M255.76 240l-14.26 4.64v-9.28z" stroke="#000" stroke-width="2"/><defs><path d="M185-189c-5-48-123-54-124 2 14 75 158 14 163 119 3 78-121 87-175 55-17-10-28-26-33-46l33-7c5 56 141 63 141-1 0-78-155-14-162-118-5-82 145-84 179-34 5 7 8 16 11 25" id="y"/><path d="M127-220V0H93v-220H8v-28h204v28h-85" id="z"/><path d="M205 0l-28-72H64L36 0H1l101-248h38L239 0h-34zm-38-99l-47-123c-12 45-31 82-46 123h93" id="A"/><path d="M233-177c-1 41-23 64-60 70L243 0h-38l-65-103H63V0H30v-248c88 3 205-21 203 71zM63-129c60-2 137 13 137-47 0-61-80-42-137-45v92" id="B"/><g id="a"><use transform="matrix(0.05,0,0,0.05,0,0)" xlink:href="#y"/><use transform="matrix(0.05,0,0,0.05,12,0)" xlink:href="#z"/><use transform="matrix(0.05,0,0,0.05,21.6,0)" xlink:href="#A"/><use transform="matrix(0.05,0,0,0.05,33.6,0)" xlink:href="#B"/><use transform="matrix(0.05,0,0,0.05,46.2,0)" xlink:href="#z"/></g><path d="M100-194c63 0 86 42 84 106H49c0 40 14 67 53 68 26 1 43-12 49-29l28 8c-11 28-37 45-77 45C44 4 14-33 15-96c1-61 26-98 85-98zm52 81c6-60-76-77-97-28-3 7-6 17-6 28h103" id="C"/><path d="M141-36C126-15 110 5 73 4 37 3 15-17 15-53c-1-64 63-63 125-63 3-35-9-54-41-54-24 1-41 7-42 31l-33-3c5-37 33-52 76-52 45 0 72 20 72 64v82c-1 20 7 32 28 27v20c-31 9-61-2-59-35zM48-53c0 20 12 33 32 33 41-3 63-29 60-74-43 2-92-5-92 41" id="D"/><path d="M85-194c31 0 48 13 60 33l-1-100h32l1 261h-30c-2-10 0-23-3-31C134-8 116 4 85 4 32 4 16-35 15-94c0-66 23-100 70-100zm9 24c-40 0-46 34-46 75 0 40 6 74 45 74 42 0 51-32 51-76 0-42-9-74-50-73" id="E"/><g id="b"><use transform="matrix(0.05,0,0,0.05,0,0)" xlink:href="#B"/><use transform="matrix(0.05,0,0,0.05,12.950000000000001,0)" xlink:href="#C"/><use transform="matrix(0.05,0,0,0.05,22.950000000000003,0)" xlink:href="#D"/><use transform="matrix(0.05,0,0,0.05,32.95,0)" xlink:href="#E"/></g><use transform="matrix(0.05,0,0,0.05,0,0)" xlink:href="#D" id="c"/><path d="M117-194c89-4 53 116 60 194h-32v-121c0-31-8-49-39-48C34-167 62-67 57 0H25l-1-190h30c1 10-1 24 2 32 11-22 29-35 61-36" id="F"/><path d="M206 0h-36l-40-164L89 0H53L-1-190h32L70-26l43-164h34l41 164 42-164h31" id="G"/><g id="d"><use transform="matrix(0.05,0,0,0.05,0,0)" xlink:href="#F"/><use transform="matrix(0.05,0,0,0.05,10,0)" xlink:href="#C"/><use transform="matrix(0.05,0,0,0.05,20,0)" xlink:href="#G"/></g><path d="M59-47c-2 24 18 29 38 22v24C64 9 27 4 27-40v-127H5v-23h24l9-43h21v43h35v23H59v120" id="H"/><path d="M141 0L90-78 38 0H4l68-98-65-92h35l48 74 47-74h35l-64 92 68 98h-35" id="I"/><g id="e"><use transform="matrix(0.05,0,0,0.05,0,0)" xlink:href="#H"/><use transform="matrix(0.05,0,0,0.05,5,0)" xlink:href="#C"/><use transform="matrix(0.05,0,0,0.05,15,0)" xlink:href="#I"/><use transform="matrix(0.05,0,0,0.05,24,0)" xlink:href="#H"/></g><g id="f"><use transform="matrix(0.05,0,0,0.05,0,0)" xlink:href="#D"/><use transform="matrix(0.05,0,0,0.05,10,0)" xlink:href="#F"/><use transform="matrix(0.05,0,0,0.05,20,0)" xlink:href="#E"/></g><path d="M177-190C167-65 218 103 67 71c-23-6-38-20-44-43l32-5c15 47 100 32 89-28v-30C133-14 115 1 83 1 29 1 15-40 15-95c0-56 16-97 71-98 29-1 48 16 59 35 1-10 0-23 2-32h30zM94-22c36 0 50-32 50-73 0-42-14-75-50-75-39 0-46 34-46 75s6 73 46 73" id="J"/><path d="M84 4C-5 8 30-112 23-190h32v120c0 31 7 50 39 49 72-2 45-101 50-169h31l1 190h-30c-1-10 1-25-2-33-11 22-28 36-60 37" id="K"/><path d="M135-143c-3-34-86-38-87 0 15 53 115 12 119 90S17 21 10-45l28-5c4 36 97 45 98 0-10-56-113-15-118-90-4-57 82-63 122-42 12 7 21 19 24 35" id="L"/><g id="g"><use transform="matrix(0.05,0,0,0.05,0,0)" xlink:href="#J"/><use transform="matrix(0.05,0,0,0.05,10,0)" xlink:href="#K"/><use transform="matrix(0.05,0,0,0.05,20,0)" xlink:href="#C"/><use transform="matrix(0.05,0,0,0.05,30,0)" xlink:href="#L"/><use transform="matrix(0.05,0,0,0.05,39,0)" xlink:href="#L"/></g><path d="M24-231v-30h32v30H24zM24 0v-190h32V0H24" id="M"/><g id="h"><use transform="matrix(0.05,0,0,0.05,0,0)" xlink:href="#M"/><use transform="matrix(0.05,0,0,0.05,3.95,0)" xlink:href="#H"/><use transform="matrix(0.05,0,0,0.05,8.95,0)" xlink:href="#L"/></g><path d="M96-169c-40 0-48 33-48 73s9 75 48 75c24 0 41-14 43-38l32 2c-6 37-31 61-74 61-59 0-76-41-82-99-10-93 101-131 147-64 4 7 5 14 7 22l-32 3c-4-21-16-35-41-35" id="N"/><path d="M24 0v-261h32V0H24" id="O"/><g id="i"><use transform="matrix(0.05,0,0,0.05,0,0)" xlink:href="#N"/><use transform="matrix(0.05,0,0,0.05,9,0)" xlink:href="#O"/><use transform="matrix(0.05,0,0,0.05,12.949999999999998,0)" xlink:href="#D"/><use transform="matrix(0.05,0,0,0.05,22.95,0)" xlink:href="#L"/><use transform="matrix(0.05,0,0,0.05,31.950000000000003,0)" xlink:href="#L"/></g><path d="M101-234c-31-9-42 10-38 44h38v23H63V0H32v-167H5v-23h27c-7-52 17-82 69-68v24" id="P"/><path d="M100-194c62-1 85 37 85 99 1 63-27 99-86 99S16-35 15-95c0-66 28-99 85-99zM99-20c44 1 53-31 53-75 0-43-8-75-51-75s-53 32-53 75 10 74 51 75" id="Q"/><g id="j"><use transform="matrix(0.05,0,0,0.05,0,0)" xlink:href="#D"/><use transform="matrix(0.05,0,0,0.05,10,0)" xlink:href="#P"/><use transform="matrix(0.05,0,0,0.05,14.65,0)" xlink:href="#P"/><use transform="matrix(0.05,0,0,0.05,19.65,0)" xlink:href="#M"/><use transform="matrix(0.05,0,0,0.05,23.599999999999998,0)" xlink:href="#O"/><use transform="matrix(0.05,0,0,0.05,27.549999999999997,0)" xlink:href="#M"/><use transform="matrix(0.05,0,0,0.05,31.499999999999996,0)" xlink:href="#D"/><use transform="matrix(0.05,0,0,0.05,41.5,0)" xlink:href="#H"/><use transform="matrix(0.05,0,0,0.05,46.5,0)" xlink:href="#M"/><use transform="matrix(0.05,0,0,0.05,50.45,0)" xlink:href="#Q"/><use transform="matrix(0.05,0,0,0.05,60.45,0)" xlink:href="#F"/></g><path d="M33 0v-248h34V0H33" id="R"/><g id="k"><use transform="matrix(0.05,0,0,0.05,0,0)" xlink:href="#R"/><use transform="matrix(0.05,0,0,0.05,5,0)" xlink:href="#L"/></g><path d="M179-190L93 31C79 59 56 82 12 73V49c39 6 53-20 64-50L1-190h34L92-34l54-156h33" id="S"/><path d="M114-163C36-179 61-72 57 0H25l-1-190h30c1 12-1 29 2 39 6-27 23-49 58-41v29" id="T"/><g id="l"><use transform="matrix(0.05,0,0,0.05,0,0)" xlink:href="#S"/><use transform="matrix(0.05,0,0,0.05,9,0)" xlink:href="#Q"/><use transform="matrix(0.05,0,0,0.05,19,0)" xlink:href="#K"/><use transform="matrix(0.05,0,0,0.05,29,0)" xlink:href="#T"/></g><path d="M103-251c84 0 111 97 45 133-19 10-37 24-39 52H78c0-63 77-55 77-114 0-30-21-42-52-43-32 0-53 17-56 46l-32-2c7-45 34-72 88-72zM77 0v-35h34V0H77" id="U"/><g id="m"><use transform="matrix(0.05,0,0,0.05,0,0)" xlink:href="#N"/><use transform="matrix(0.05,0,0,0.05,9,0)" xlink:href="#Q"/><use transform="matrix(0.05,0,0,0.05,19,0)" xlink:href="#T"/><use transform="matrix(0.05,0,0,0.05,24.95,0)" xlink:href="#T"/><use transform="matrix(0.05,0,0,0.05,30.899999999999995,0)" xlink:href="#C"/><use transform="matrix(0.05,0,0,0.05,40.9,0)" xlink:href="#N"/><use transform="matrix(0.05,0,0,0.05,49.9,0)" xlink:href="#H"/><use transform="matrix(0.05,0,0,0.05,54.900000000000006,0)" xlink:href="#U"/></g><path d="M137-103V0h-34v-103L8-248h37l75 118 75-118h37" id="V"/><g id="n"><use transform="matrix(0.05,0,0,0.05,0,0)" xlink:href="#V"/><use transform="matrix(0.05,0,0,0.05,10.35,0)" xlink:href="#Q"/><use transform="matrix(0.05,0,0,0.05,20.35,0)" xlink:href="#K"/></g><path d="M63-70H37l-4-178h34zM33 0v-35h34V0H33" id="W"/><g id="o"><use transform="matrix(0.05,0,0,0.05,0,0)" xlink:href="#O"/><use transform="matrix(0.05,0,0,0.05,3.95,0)" xlink:href="#Q"/><use transform="matrix(0.05,0,0,0.05,13.949999999999998,0)" xlink:href="#L"/><use transform="matrix(0.05,0,0,0.05,22.95,0)" xlink:href="#C"/><use transform="matrix(0.05,0,0,0.05,32.95,0)" xlink:href="#W"/></g><g id="p"><use transform="matrix(0.05,0,0,0.05,0,0)" xlink:href="#G"/><use transform="matrix(0.05,0,0,0.05,12.950000000000001,0)" xlink:href="#M"/><use transform="matrix(0.05,0,0,0.05,16.900000000000002,0)" xlink:href="#F"/><use transform="matrix(0.05,0,0,0.05,26.900000000000002,0)" xlink:href="#W"/></g><g id="q"><use transform="matrix(0.05,0,0,0.05,0,0)" xlink:href="#V"/><use transform="matrix(0.05,0,0,0.05,10.35,0)" xlink:href="#C"/><use transform="matrix(0.05,0,0,0.05,20.35,0)" xlink:href="#L"/></g><path d="M190 0L58-211 59 0H30v-248h39L202-35l-2-213h31V0h-41" id="X"/><g id="r"><use transform="matrix(0.05,0,0,0.05,0,0)" xlink:href="#X"/><use transform="matrix(0.05,0,0,0.05,12.950000000000001,0)" xlink:href="#Q"/></g><g id="s"><use transform="matrix(0.05,0,0,0.05,0,0)" xlink:href="#y"/><use transform="matrix(0.05,0,0,0.05,12,0)" xlink:href="#H"/><use transform="matrix(0.05,0,0,0.05,17,0)" xlink:href="#K"/><use transform="matrix(0.05,0,0,0.05,27,0)" xlink:href="#E"/><use transform="matrix(0.05,0,0,0.05,37,0)" xlink:href="#S"/></g><path d="M106-169C34-169 62-67 57 0H25v-261h32l-1 103c12-21 28-36 61-36 89 0 53 116 60 194h-32v-121c2-32-8-49-39-48" id="Y"/><g id="t"><use transform="matrix(0.05,0,0,0.05,0,0)" xlink:href="#H"/><use transform="matrix(0.05,0,0,0.05,5,0)" xlink:href="#Y"/><use transform="matrix(0.05,0,0,0.05,15,0)" xlink:href="#C"/></g><g id="u"><use transform="matrix(0.05,0,0,0.05,0,0)" xlink:href="#H"/><use transform="matrix(0.05,0,0,0.05,5,0)" xlink:href="#T"/><use transform="matrix(0.05,0,0,0.05,10.95,0)" xlink:href="#D"/><use transform="matrix(0.05,0,0,0.05,20.95,0)" xlink:href="#M"/><use transform="matrix(0.05,0,0,0.05,24.9,0)" xlink:href="#F"/><use transform="matrix(0.05,0,0,0.05,34.9,0)" xlink:href="#M"/><use transform="matrix(0.05,0,0,0.05,38.85,0)" xlink:href="#F"/><use transform="matrix(0.05,0,0,0.05,48.85,0)" xlink:href="#J"/></g><path d="M115-194c55 1 70 41 70 98S169 2 115 4C84 4 66-9 55-30l1 105H24l-1-265h31l2 30c10-21 28-34 59-34zm-8 174c40 0 45-34 45-75s-6-73-45-74c-42 0-51 32-51 76 0 43 10 73 51 73" id="Z"/><g id="v"><use transform="matrix(0.05,0,0,0.05,0,0)" xlink:href="#N"/><use transform="matrix(0.05,0,0,0.05,9,0)" xlink:href="#Q"/><use transform="matrix(0.05,0,0,0.05,19,0)" xlink:href="#T"/><use transform="matrix(0.05,0,0,0.05,24.95,0)" xlink:href="#Z"/><use transform="matrix(0.05,0,0,0.05,34.95,0)" xlink:href="#K"/><use transform="matrix(0.05,0,0,0.05,44.95,0)" xlink:href="#L"/></g><g id="w"><use transform="matrix(0.05,0,0,0.05,0,0)" xlink:href="#Q"/><use transform="matrix(0.05,0,0,0.05,10,0)" xlink:href="#P"/></g><g id="x"><use transform="matrix(0.05,0,0,0.05,0,0)" xlink:href="#H"/><use transform="matrix(0.05,0,0,0.05,5,0)" xlink:href="#C"/><use transform="matrix(0.05,0,0,0.05,15,0)" xlink:href="#I"/><use transform="matrix(0.05,0,0,0.05,24,0)" xlink:href="#H"/><use transform="matrix(0.05,0,0,0.05,29,0)" xlink:href="#L"/></g></defs></g></svg>